<svg width="63" height="34" viewBox="0 0 63 34" fill="none" xmlns="http://www.w3.org/2000/svg">
<g clip-path="url(#clip0_697_11)">
<path d="M63 31.2464V33.4467H55.9685V24.9357H62.8503V27.136H58.8944V28.1934H62.0857V30.2231H58.8944V31.2294L63 31.2464ZM52.1787 33.4467L50.7158 30.6154H49.9181V33.4467H47.059V24.9357H51.5471C52.6443 24.9357 53.4919 25.1745 54.0569 25.6521C54.6222 26.1296 54.9049 26.846 54.9049 27.7841C54.9049 29.0292 54.4062 29.8649 53.4089 30.2913L55.37 33.4296L52.1787 33.4467ZM51.7463 27.2553C51.597 27.136 51.3307 27.0677 50.9654 27.0677H49.9181V28.6369H50.9654C51.3307 28.6369 51.597 28.5857 51.7463 28.4663C52.0458 28.1423 52.0458 27.6135 51.7463 27.2553ZM41.9056 33.5831C39.2462 33.5831 37.8997 32.321 37.8997 29.7967V24.9528H40.842V30.0184C40.8253 30.3595 40.9084 30.7177 41.1079 30.9906C41.3075 31.2123 41.6066 31.3488 41.9056 31.3146C42.2051 31.3317 42.5041 31.2123 42.7038 30.9906C42.903 30.7177 43.0028 30.3595 42.9865 30.0184V24.9357H45.9119V29.7796C45.9119 32.321 44.5819 33.5831 41.9056 33.5831ZM34.5586 33.4467H31.633V27.136H29.0398V24.9357H37.1517V27.136H34.5752L34.5586 33.4467ZM24.2691 33.5831C21.5929 33.5831 20.2631 32.321 20.2631 29.7967V24.9528H23.2053V30.0184C23.1887 30.3595 23.2717 30.7177 23.4712 30.9906C23.6707 31.2123 23.9699 31.3488 24.2691 31.3146C24.5683 31.3317 24.8675 31.2123 25.067 30.9906C25.2665 30.7177 25.3662 30.3595 25.3496 30.0184V24.9357H28.2752V29.7796C28.2752 32.321 26.9454 33.5831 24.2691 33.5831ZM15.6087 28.3299H18.8003V30.5301H15.6087V33.4467H12.6831V24.9357H19.5483V27.136H15.6087V28.3299ZM34.6084 8.59618H31.3504L29.8211 5.42377L29.1396 6.37887V8.59618H26.2306V0.136417H29.1396V3.29176L31.2839 0.136417H34.3757L31.8491 3.49644L34.6084 8.59618ZM21.7425 6.48121C22.1414 6.48121 22.424 6.39596 22.5902 6.20833C22.7897 5.95249 22.9061 5.64548 22.9227 5.32143L25.4992 6.00366C25.067 7.81157 23.8037 8.71555 21.6926 8.71555C20.9113 8.7326 20.1467 8.56205 19.4486 8.20388C18.8335 7.86274 18.3182 7.35106 18.0024 6.70296C17.6533 5.96953 17.4704 5.16793 17.5037 4.34924C17.4871 3.53055 17.6533 2.72892 18.0024 1.99551C18.3182 1.36444 18.8335 0.83571 19.4486 0.494593C20.1467 0.136417 20.9113 -0.0341424 21.6926 -0.0170864C22.557 -0.0511983 23.4214 0.170529 24.1694 0.613984C24.8509 1.04038 25.3163 1.73967 25.4493 2.54131L22.9559 3.5476C22.8895 3.01887 22.7731 2.67775 22.5902 2.49014C22.3575 2.28547 22.075 2.20018 21.7757 2.21724C21.3768 2.20018 21.0111 2.3878 20.795 2.72892C20.5789 3.07004 20.4625 3.59877 20.4625 4.33216C20.4625 5.06559 20.5623 5.59431 20.7784 5.93545C20.9945 6.31066 21.3601 6.49829 21.7425 6.48121ZM14.6113 8.59618L14.229 6.97585H12.0016L11.6192 8.59618H8.72693L11.4032 0.136417H14.9105L17.6034 8.59618H14.6113ZM13.1486 2.30252H13.1153L12.7829 3.73522L12.4504 5.11676H13.8134L13.1486 2.30252ZM5.30264 5.44081H3.04195V8.59618H0.132982V0.136417H3.04195V3.2406H5.30264V0.136417H8.2116V8.59618H5.30264V5.44081ZM12.5335 18.9662V21.2176C12.5335 21.2176 8.19499 21.4222 8.41107 16.6465C8.44433 12.195 12.5169 12.502 12.5169 12.502V14.6851C12.5169 14.6851 11.32 14.5828 11.3533 16.8171C11.3866 19.0514 12.2842 18.915 12.5335 18.9662ZM28.458 14.5999V12.3485C28.458 12.3485 32.5472 11.9562 32.5971 16.783C32.5638 21.3199 28.4747 21.0811 28.4747 21.0811V18.8809C28.4747 18.8809 29.738 18.8809 29.6383 16.5954C29.5385 14.3099 28.458 14.5999 28.458 14.5999ZM50.8488 20.9958H47.6738L46.2109 18.1645H45.4132V20.9958H42.554V12.4849H47.0422C48.1394 12.4849 48.987 12.7237 49.5524 13.2012C50.1173 13.6788 50.4 14.3952 50.4 15.3333C50.4 16.5783 49.9013 17.4141 48.904 17.8405L50.8488 20.9958ZM47.225 14.8045C47.0753 14.6851 46.8094 14.6169 46.4437 14.6169H45.3964V16.1861H46.4437C46.8094 16.1861 47.0753 16.1349 47.225 16.0155C47.5409 15.6744 47.5409 15.1456 47.225 14.8045ZM37.4675 21.1152C34.7913 21.1152 33.4615 19.8531 33.4615 17.3288V12.4849H36.4037V17.5676C36.3871 17.9087 36.4702 18.2669 36.6696 18.5398C36.8691 18.7615 37.1683 18.8979 37.4675 18.8638C37.7667 18.8809 38.0659 18.7615 38.2654 18.5398C38.4649 18.2669 38.5646 17.9087 38.548 17.5676V12.4849H41.4736V17.3288C41.4736 19.8531 40.1438 21.1152 37.4675 21.1152ZM5.81793 20.9958H2.89235V18.0452L0 12.4849H2.90897L3.78997 14.4293L4.37175 15.9814L4.95356 14.4293L5.83458 12.4849H8.71028L5.81793 18.0452V20.9958Z" fill="white"/>
<path d="M18.8002 12.4165H15.2761V21.2856H18.8002V12.4165Z" fill="#2D3037"/>
<path d="M22.3243 12.4165H18.8003V21.2856H22.3243V12.4165Z" fill="#FFF310"/>
<path d="M25.8648 12.4165H22.3408V21.2856H25.8648V12.4165Z" fill="#CC0A0A"/>
</g>
<defs>
<clipPath id="clip0_697_11">
<rect width="63" height="34" fill="white"/>
</clipPath>
</defs>
</svg>
