<?xml version="1.0" encoding="UTF-8" standalone="no"?>
<!DOCTYPE svg PUBLIC "-//W3C//DTD SVG 1.1//EN"
 "http://www.w3.org/Graphics/SVG/1.1/DTD/svg11.dtd">
<!-- Generated by graphviz version 2.44.0 (20200408.0750)
 -->
<!-- Title: dependency&#45;cruiser output Pages: 1 -->
<svg width="711pt" height="523pt"
 viewBox="0.00 0.00 711.08 523.05" xmlns="http://www.w3.org/2000/svg" xmlns:xlink="http://www.w3.org/1999/xlink">
<g id="graph0" class="graph" transform="scale(1 1) rotate(0) translate(4 519.05)">
<title>dependency&#45;cruiser output</title>
<polygon fill="white" stroke="transparent" points="-4,4 -4,-519.05 707.08,-519.05 707.08,4 -4,4"/>
<g id="clust1" class="cluster">
<title>cluster_api</title>
<path fill="#ffffff" stroke="black" stroke-width="2" d="M20,-203.05C20,-203.05 628.57,-203.05 628.57,-203.05 634.57,-203.05 640.57,-209.05 640.57,-215.05 640.57,-215.05 640.57,-495.05 640.57,-495.05 640.57,-501.05 634.57,-507.05 628.57,-507.05 628.57,-507.05 20,-507.05 20,-507.05 14,-507.05 8,-501.05 8,-495.05 8,-495.05 8,-215.05 8,-215.05 8,-209.05 14,-203.05 20,-203.05"/>
<text text-anchor="middle" x="324.29" y="-494.95" font-family="Helvetica,sans-Serif" font-weight="bold" font-size="9.00">api</text>
</g>
<g id="clust2" class="cluster">
<title>cluster_api/business&#45;logic</title>
<path fill="#ffffff" stroke="black" stroke-width="2" d="M267.02,-334.05C267.02,-334.05 418.54,-334.05 418.54,-334.05 424.54,-334.05 430.54,-340.05 430.54,-346.05 430.54,-346.05 430.54,-468.05 430.54,-468.05 430.54,-474.05 424.54,-480.05 418.54,-480.05 418.54,-480.05 267.02,-480.05 267.02,-480.05 261.02,-480.05 255.02,-474.05 255.02,-468.05 255.02,-468.05 255.02,-346.05 255.02,-346.05 255.02,-340.05 261.02,-334.05 267.02,-334.05"/>
<text text-anchor="middle" x="342.78" y="-467.95" font-family="Helvetica,sans-Serif" font-weight="bold" font-size="9.00">business&#45;logic</text>
</g>
<g id="clust3" class="cluster">
<title>cluster_api/config</title>
<path fill="#ffffff" stroke="black" stroke-width="2" d="M458.05,-334.05C458.05,-334.05 620.57,-334.05 620.57,-334.05 626.57,-334.05 632.57,-340.05 632.57,-346.05 632.57,-346.05 632.57,-468.05 632.57,-468.05 632.57,-474.05 626.57,-480.05 620.57,-480.05 620.57,-480.05 458.05,-480.05 458.05,-480.05 452.05,-480.05 446.05,-474.05 446.05,-468.05 446.05,-468.05 446.05,-346.05 446.05,-346.05 446.05,-340.05 452.05,-334.05 458.05,-334.05"/>
<text text-anchor="middle" x="539.31" y="-467.95" font-family="Helvetica,sans-Serif" font-weight="bold" font-size="9.00">config</text>
</g>
<g id="clust4" class="cluster">
<title>cluster_api/controllers</title>
<path fill="#ffffff" stroke="black" stroke-width="2" d="M178.51,-318.05C178.51,-318.05 225.51,-318.05 225.51,-318.05 231.51,-318.05 237.51,-324.05 237.51,-330.05 237.51,-330.05 237.51,-452.05 237.51,-452.05 237.51,-458.05 231.51,-464.05 225.51,-464.05 225.51,-464.05 178.51,-464.05 178.51,-464.05 172.51,-464.05 166.51,-458.05 166.51,-452.05 166.51,-452.05 166.51,-330.05 166.51,-330.05 166.51,-324.05 172.51,-318.05 178.51,-318.05"/>
<text text-anchor="middle" x="202.01" y="-451.95" font-family="Helvetica,sans-Serif" font-weight="bold" font-size="9.00">controllers</text>
</g>
<g id="clust5" class="cluster">
<title>cluster_api/data&#45;access</title>
<path fill="#ffffff" stroke="black" stroke-width="2" d="M450.54,-242.05C450.54,-242.05 534.06,-242.05 534.06,-242.05 540.06,-242.05 546.06,-248.05 546.06,-254.05 546.06,-254.05 546.06,-314.05 546.06,-314.05 546.06,-320.05 540.06,-326.05 534.06,-326.05 534.06,-326.05 450.54,-326.05 450.54,-326.05 444.54,-326.05 438.54,-320.05 438.54,-314.05 438.54,-314.05 438.54,-254.05 438.54,-254.05 438.54,-248.05 444.54,-242.05 450.54,-242.05"/>
<text text-anchor="middle" x="492.3" y="-313.95" font-family="Helvetica,sans-Serif" font-weight="bold" font-size="9.00">data&#45;access</text>
</g>
<g id="clust6" class="cluster">
<title>cluster_api/middleware</title>
<path fill="#ffffff" stroke="black" stroke-width="2" d="M169,-211.05C169,-211.05 235.02,-211.05 235.02,-211.05 241.02,-211.05 247.02,-217.05 247.02,-223.05 247.02,-223.05 247.02,-283.05 247.02,-283.05 247.02,-289.05 241.02,-295.05 235.02,-295.05 235.02,-295.05 169,-295.05 169,-295.05 163,-295.05 157,-289.05 157,-283.05 157,-283.05 157,-223.05 157,-223.05 157,-217.05 163,-211.05 169,-211.05"/>
<text text-anchor="middle" x="202.01" y="-282.95" font-family="Helvetica,sans-Serif" font-weight="bold" font-size="9.00">middleware</text>
</g>
<g id="clust7" class="cluster">
<title>cluster_api/routes</title>
<path fill="#ffffff" stroke="black" stroke-width="2" d="M90,-237.05C90,-237.05 137,-237.05 137,-237.05 143,-237.05 149,-243.05 149,-249.05 149,-249.05 149,-371.05 149,-371.05 149,-377.05 143,-383.05 137,-383.05 137,-383.05 90,-383.05 90,-383.05 84,-383.05 78,-377.05 78,-371.05 78,-371.05 78,-249.05 78,-249.05 78,-243.05 84,-237.05 90,-237.05"/>
<text text-anchor="middle" x="113.5" y="-370.95" font-family="Helvetica,sans-Serif" font-weight="bold" font-size="9.00">routes</text>
</g>
<g id="clust8" class="cluster">
<title>cluster_api/utils</title>
<path fill="#ffffff" stroke="black" stroke-width="2" d="M338.77,-211.05C338.77,-211.05 414.78,-211.05 414.78,-211.05 420.78,-211.05 426.78,-217.05 426.78,-223.05 426.78,-223.05 426.78,-314.05 426.78,-314.05 426.78,-320.05 420.78,-326.05 414.78,-326.05 414.78,-326.05 338.77,-326.05 338.77,-326.05 332.77,-326.05 326.77,-320.05 326.77,-314.05 326.77,-314.05 326.77,-223.05 326.77,-223.05 326.77,-217.05 332.77,-211.05 338.77,-211.05"/>
<text text-anchor="middle" x="376.78" y="-313.95" font-family="Helvetica,sans-Serif" font-weight="bold" font-size="9.00">utils</text>
</g>
<g id="clust9" class="cluster">
<title>cluster_node_modules</title>
<path fill="#ffffff" stroke="black" stroke-width="2" d="M566.06,-49.05C566.06,-49.05 629.08,-49.05 629.08,-49.05 635.08,-49.05 641.08,-55.05 641.08,-61.05 641.08,-61.05 641.08,-183.05 641.08,-183.05 641.08,-189.05 635.08,-195.05 629.08,-195.05 629.08,-195.05 566.06,-195.05 566.06,-195.05 560.06,-195.05 554.06,-189.05 554.06,-183.05 554.06,-183.05 554.06,-61.05 554.06,-61.05 554.06,-55.05 560.06,-49.05 566.06,-49.05"/>
<text text-anchor="middle" x="597.57" y="-182.95" font-family="Helvetica,sans-Serif" font-weight="bold" font-size="9.00">node_modules</text>
</g>
<!-- api/business&#45;logic/books.js -->
<g id="node1" class="node">
<title>api/business&#45;logic/books.js</title>
<g id="a_node1"><a xlink:href="api/business-logic/books.js" xlink:title="books.js">
<path fill="#ffffcc" stroke="black" d="M311.32,-453.35C311.32,-453.35 269.72,-453.35 269.72,-453.35 266.62,-453.35 263.52,-450.25 263.52,-447.15 263.52,-447.15 263.52,-440.95 263.52,-440.95 263.52,-437.85 266.62,-434.75 269.72,-434.75 269.72,-434.75 311.32,-434.75 311.32,-434.75 314.42,-434.75 317.52,-437.85 317.52,-440.95 317.52,-440.95 317.52,-447.15 317.52,-447.15 317.52,-450.25 314.42,-453.35 311.32,-453.35"/>
<text text-anchor="middle" x="290.52" y="-441.35" font-family="Helvetica,sans-Serif" font-size="9.00">books.js</text>
</a>
</g>
</g>
<!-- api/data&#45;access/mongodbAccess.js -->
<g id="node2" class="node">
<title>api/data&#45;access/mongodbAccess.js</title>
<g id="a_node2"><a xlink:href="api/data-access/mongodbAccess.js" xlink:title="mongodbAccess.js">
<path fill="#ffffcc" stroke="black" d="M531.62,-299.35C531.62,-299.35 452.98,-299.35 452.98,-299.35 449.88,-299.35 446.78,-296.25 446.78,-293.15 446.78,-293.15 446.78,-286.95 446.78,-286.95 446.78,-283.85 449.88,-280.75 452.98,-280.75 452.98,-280.75 531.62,-280.75 531.62,-280.75 534.72,-280.75 537.82,-283.85 537.82,-286.95 537.82,-286.95 537.82,-293.15 537.82,-293.15 537.82,-296.25 534.72,-299.35 531.62,-299.35"/>
<text text-anchor="middle" x="492.3" y="-287.35" font-family="Helvetica,sans-Serif" font-size="9.00">mongodbAccess.js</text>
</a>
</g>
</g>
<!-- api/business&#45;logic/books.js&#45;&gt;api/data&#45;access/mongodbAccess.js -->
<g id="edge1" class="edge">
<title>api/business&#45;logic/books.js&#45;&gt;api/data&#45;access/mongodbAccess.js</title>
<path fill="none" stroke="#000000" stroke-width="2" stroke-opacity="0.200000" d="M317.57,-445.46C349.43,-445.63 402.57,-440.56 430.54,-408.05 441.76,-395.01 430.19,-346.09 438.54,-331.05 445.17,-319.11 456.86,-309.48 467.56,-302.56"/>
<polygon fill="#000000" fill-opacity="0.200000" stroke="#000000" stroke-width="2" stroke-opacity="0.200000" points="468.7,-304.32 472.7,-299.38 466.49,-300.75 468.7,-304.32"/>
</g>
<!-- api/business&#45;logic/googleBooksAPI.js -->
<g id="node3" class="node">
<title>api/business&#45;logic/googleBooksAPI.js</title>
<g id="a_node3"><a xlink:href="api/business-logic/googleBooksAPI.js" xlink:title="googleBooksAPI.js">
<path fill="#ffffcc" stroke="black" d="M416.1,-360.35C416.1,-360.35 337.45,-360.35 337.45,-360.35 334.35,-360.35 331.25,-357.25 331.25,-354.15 331.25,-354.15 331.25,-347.95 331.25,-347.95 331.25,-344.85 334.35,-341.75 337.45,-341.75 337.45,-341.75 416.1,-341.75 416.1,-341.75 419.2,-341.75 422.3,-344.85 422.3,-347.95 422.3,-347.95 422.3,-354.15 422.3,-354.15 422.3,-357.25 419.2,-360.35 416.1,-360.35"/>
<text text-anchor="middle" x="376.78" y="-348.35" font-family="Helvetica,sans-Serif" font-size="9.00">googleBooksAPI.js</text>
</a>
</g>
</g>
<!-- api/business&#45;logic/books.js&#45;&gt;api/business&#45;logic/googleBooksAPI.js -->
<g id="edge2" class="edge">
<title>api/business&#45;logic/books.js&#45;&gt;api/business&#45;logic/googleBooksAPI.js</title>
<path fill="none" stroke="#000000" stroke-width="2" stroke-opacity="0.200000" d="M309.29,-434.62C312.35,-432.64 315.39,-430.43 318.02,-428.05 338.73,-409.32 357.01,-382.23 367.21,-365.68"/>
<polygon fill="#000000" fill-opacity="0.200000" stroke="#000000" stroke-width="2" stroke-opacity="0.200000" points="369.04,-366.71 370.35,-360.5 365.45,-364.54 369.04,-366.71"/>
</g>
<!-- node_modules/mongodb -->
<g id="node10" class="node">
<title>node_modules/mongodb</title>
<g id="a_node10"><a xlink:href="node_modules/mongodb" xlink:title="mongodb">
<polygon fill="#c40b0a" fill-opacity="0.101961" stroke="black" points="624.57,-137.35 572.64,-137.35 570.57,-135.28 570.57,-118.75 622.51,-118.75 624.57,-120.81 624.57,-137.35"/>
<polyline fill="none" stroke="black" points="622.51,-135.28 570.57,-135.28 "/>
<polyline fill="none" stroke="black" points="622.51,-135.28 622.51,-118.75 "/>
<polyline fill="none" stroke="black" points="622.51,-135.28 624.57,-137.35 "/>
<text text-anchor="middle" x="597.57" y="-125.35" font-family="Helvetica,sans-Serif" font-size="9.00" fill="#c40b0a">mongodb</text>
</a>
</g>
</g>
<!-- api/data&#45;access/mongodbAccess.js&#45;&gt;node_modules/mongodb -->
<g id="edge19" class="edge">
<title>api/data&#45;access/mongodbAccess.js&#45;&gt;node_modules/mongodb</title>
<path fill="none" stroke="#000000" stroke-opacity="0.200000" d="M538.02,-281.21C541.06,-279.26 543.81,-276.9 546.06,-274.05 564.01,-251.34 536.87,-167.33 554.06,-144.05 556.9,-140.21 560.76,-137.3 565.02,-135.08"/>
<polygon fill="#000000" fill-opacity="0.200000" stroke="#000000" stroke-opacity="0.200000" points="565.92,-136.97 570.56,-132.63 564.23,-133.13 565.92,-136.97"/>
</g>
<!-- api/data&#45;access/googleBooksAPI.js -->
<g id="node4" class="node">
<title>api/data&#45;access/googleBooksAPI.js</title>
<g id="a_node4"><a xlink:href="api/data-access/googleBooksAPI.js" xlink:title="googleBooksAPI.js">
<path fill="#ffffcc" stroke="black" d="M531.63,-268.35C531.63,-268.35 452.98,-268.35 452.98,-268.35 449.88,-268.35 446.78,-265.25 446.78,-262.15 446.78,-262.15 446.78,-255.95 446.78,-255.95 446.78,-252.85 449.88,-249.75 452.98,-249.75 452.98,-249.75 531.63,-249.75 531.63,-249.75 534.73,-249.75 537.83,-252.85 537.83,-255.95 537.83,-255.95 537.83,-262.15 537.83,-262.15 537.83,-265.25 534.73,-268.35 531.63,-268.35"/>
<text text-anchor="middle" x="492.3" y="-256.35" font-family="Helvetica,sans-Serif" font-size="9.00">googleBooksAPI.js</text>
</a>
</g>
</g>
<!-- api/business&#45;logic/googleBooksAPI.js&#45;&gt;api/data&#45;access/googleBooksAPI.js -->
<g id="edge3" class="edge">
<title>api/business&#45;logic/googleBooksAPI.js&#45;&gt;api/data&#45;access/googleBooksAPI.js</title>
<path fill="none" stroke="#000000" stroke-width="2" stroke-opacity="0.200000" d="M414.37,-341.63C420.56,-338.54 426.33,-334.45 430.54,-329.05 445.44,-309.9 422.69,-293.42 438.54,-275.05 439.38,-274.07 440.29,-273.15 441.24,-272.29"/>
<polygon fill="#000000" fill-opacity="0.200000" stroke="#000000" stroke-width="2" stroke-opacity="0.200000" points="442.85,-273.7 446.36,-268.41 440.31,-270.35 442.85,-273.7"/>
</g>
<!-- node_modules/request -->
<g id="node21" class="node">
<title>node_modules/request</title>
<g id="a_node21"><a xlink:href="node_modules/request" xlink:title="request">
<polygon fill="#c40b0a" fill-opacity="0.101961" stroke="black" points="624.57,-168.35 572.64,-168.35 570.57,-166.28 570.57,-149.75 622.51,-149.75 624.57,-151.81 624.57,-168.35"/>
<polyline fill="none" stroke="black" points="622.51,-166.28 570.57,-166.28 "/>
<polyline fill="none" stroke="black" points="622.51,-166.28 622.51,-149.75 "/>
<polyline fill="none" stroke="black" points="622.51,-166.28 624.57,-168.35 "/>
<text text-anchor="middle" x="597.57" y="-156.35" font-family="Helvetica,sans-Serif" font-size="9.00" fill="#c40b0a">request</text>
</a>
</g>
</g>
<!-- api/data&#45;access/googleBooksAPI.js&#45;&gt;node_modules/request -->
<g id="edge18" class="edge">
<title>api/data&#45;access/googleBooksAPI.js&#45;&gt;node_modules/request</title>
<path fill="none" stroke="#000000" stroke-opacity="0.200000" d="M516.34,-249.74C526.17,-245.06 537.36,-238.74 546.06,-231.05 564.82,-214.48 580.26,-189.62 588.94,-173.87"/>
<polygon fill="#000000" fill-opacity="0.200000" stroke="#000000" stroke-opacity="0.200000" points="590.83,-174.8 591.83,-168.52 587.14,-172.8 590.83,-174.8"/>
</g>
<!-- api/business&#45;logic/login.js -->
<g id="node5" class="node">
<title>api/business&#45;logic/login.js</title>
<g id="a_node5"><a xlink:href="api/business-logic/login.js" xlink:title="login.js">
<path fill="#ffffcc" stroke="black" d="M311.32,-422.35C311.32,-422.35 269.72,-422.35 269.72,-422.35 266.62,-422.35 263.52,-419.25 263.52,-416.15 263.52,-416.15 263.52,-409.95 263.52,-409.95 263.52,-406.85 266.62,-403.75 269.72,-403.75 269.72,-403.75 311.32,-403.75 311.32,-403.75 314.42,-403.75 317.52,-406.85 317.52,-409.95 317.52,-409.95 317.52,-416.15 317.52,-416.15 317.52,-419.25 314.42,-422.35 311.32,-422.35"/>
<text text-anchor="middle" x="290.52" y="-410.35" font-family="Helvetica,sans-Serif" font-size="9.00">login.js</text>
</a>
</g>
</g>
<!-- api/business&#45;logic/login.js&#45;&gt;api/data&#45;access/mongodbAccess.js -->
<g id="edge4" class="edge">
<title>api/business&#45;logic/login.js&#45;&gt;api/data&#45;access/mongodbAccess.js</title>
<path fill="none" stroke="#000000" stroke-width="2" stroke-opacity="0.200000" d="M317.68,-417.05C349.16,-420.24 401.39,-420.06 430.54,-390.05 448.98,-371.07 425.34,-353.98 438.54,-331.05 445.36,-319.21 457.06,-309.59 467.72,-302.65"/>
<polygon fill="#000000" fill-opacity="0.200000" stroke="#000000" stroke-width="2" stroke-opacity="0.200000" points="468.86,-304.42 472.84,-299.46 466.64,-300.85 468.86,-304.42"/>
</g>
<!-- api/utils/createToken.js -->
<g id="node6" class="node">
<title>api/utils/createToken.js</title>
<g id="a_node6"><a xlink:href="api/utils/createToken.js" xlink:title="createToken.js">
<path fill="#ffffcc" stroke="black" d="M408.09,-299.35C408.09,-299.35 345.47,-299.35 345.47,-299.35 342.37,-299.35 339.27,-296.25 339.27,-293.15 339.27,-293.15 339.27,-286.95 339.27,-286.95 339.27,-283.85 342.37,-280.75 345.47,-280.75 345.47,-280.75 408.09,-280.75 408.09,-280.75 411.19,-280.75 414.29,-283.85 414.29,-286.95 414.29,-286.95 414.29,-293.15 414.29,-293.15 414.29,-296.25 411.19,-299.35 408.09,-299.35"/>
<text text-anchor="middle" x="376.78" y="-287.35" font-family="Helvetica,sans-Serif" font-size="9.00">createToken.js</text>
</a>
</g>
</g>
<!-- api/business&#45;logic/login.js&#45;&gt;api/utils/createToken.js -->
<g id="edge5" class="edge">
<title>api/business&#45;logic/login.js&#45;&gt;api/utils/createToken.js</title>
<path fill="none" stroke="#000000" stroke-width="2" stroke-opacity="0.200000" d="M311.75,-403.62C314.17,-401.75 316.37,-399.57 318.02,-397.05 334.23,-372.29 312.51,-356.97 326.77,-331.05 333.06,-319.63 343.9,-310.05 353.79,-303.03"/>
<polygon fill="#000000" fill-opacity="0.200000" stroke="#000000" stroke-width="2" stroke-opacity="0.200000" points="355.06,-304.71 358.84,-299.6 352.7,-301.24 355.06,-304.71"/>
</g>
<!-- api/utils/hashPassword.js -->
<g id="node7" class="node">
<title>api/utils/hashPassword.js</title>
<g id="a_node7"><a xlink:href="api/utils/hashPassword.js" xlink:title="hashPassword.js">
<path fill="#ffffcc" stroke="black" d="M412.59,-268.35C412.59,-268.35 340.97,-268.35 340.97,-268.35 337.87,-268.35 334.77,-265.25 334.77,-262.15 334.77,-262.15 334.77,-255.95 334.77,-255.95 334.77,-252.85 337.87,-249.75 340.97,-249.75 340.97,-249.75 412.59,-249.75 412.59,-249.75 415.69,-249.75 418.79,-252.85 418.79,-255.95 418.79,-255.95 418.79,-262.15 418.79,-262.15 418.79,-265.25 415.69,-268.35 412.59,-268.35"/>
<text text-anchor="middle" x="376.78" y="-256.35" font-family="Helvetica,sans-Serif" font-size="9.00">hashPassword.js</text>
</a>
</g>
</g>
<!-- api/business&#45;logic/login.js&#45;&gt;api/utils/hashPassword.js -->
<g id="edge6" class="edge">
<title>api/business&#45;logic/login.js&#45;&gt;api/utils/hashPassword.js</title>
<path fill="none" stroke="#000000" stroke-width="2" stroke-opacity="0.200000" d="M311.89,-403.71C314.29,-401.82 316.44,-399.61 318.02,-397.05 332.21,-373.87 310.03,-296.46 326.77,-275.05 327.6,-273.99 328.5,-273 329.46,-272.08"/>
<polygon fill="#000000" fill-opacity="0.200000" stroke="#000000" stroke-width="2" stroke-opacity="0.200000" points="331.27,-273.33 334.7,-267.97 328.68,-270.02 331.27,-273.33"/>
</g>
<!-- api/config/tokens.js -->
<g id="node16" class="node">
<title>api/config/tokens.js</title>
<g id="a_node16"><a xlink:href="api/config/tokens.js" xlink:title="tokens.js">
<path fill="#ffffcc" stroke="black" d="M513.1,-360.35C513.1,-360.35 471.5,-360.35 471.5,-360.35 468.4,-360.35 465.3,-357.25 465.3,-354.15 465.3,-354.15 465.3,-347.95 465.3,-347.95 465.3,-344.85 468.4,-341.75 471.5,-341.75 471.5,-341.75 513.1,-341.75 513.1,-341.75 516.2,-341.75 519.3,-344.85 519.3,-347.95 519.3,-347.95 519.3,-354.15 519.3,-354.15 519.3,-357.25 516.2,-360.35 513.1,-360.35"/>
<text text-anchor="middle" x="492.3" y="-348.35" font-family="Helvetica,sans-Serif" font-size="9.00">tokens.js</text>
</a>
</g>
</g>
<!-- api/utils/createToken.js&#45;&gt;api/config/tokens.js -->
<g id="edge37" class="edge">
<title>api/utils/createToken.js&#45;&gt;api/config/tokens.js</title>
<path fill="none" stroke="#000000" stroke-width="2" stroke-opacity="0.200000" d="M390.89,-299.42C402.93,-307.79 421.44,-320.09 438.54,-329.05 445.62,-332.76 453.46,-336.31 460.88,-339.43"/>
<polygon fill="#000000" fill-opacity="0.200000" stroke="#000000" stroke-width="2" stroke-opacity="0.200000" points="460.11,-341.39 466.46,-341.74 461.72,-337.51 460.11,-341.39"/>
</g>
<!-- node_modules/jsonwebtoken -->
<g id="node31" class="node">
<title>node_modules/jsonwebtoken</title>
<g id="a_node31"><a xlink:href="node_modules/jsonwebtoken" xlink:title="jsonwebtoken">
<polygon fill="#c40b0a" fill-opacity="0.101961" stroke="black" points="633.09,-106.35 564.12,-106.35 562.06,-104.28 562.06,-87.75 631.02,-87.75 633.09,-89.81 633.09,-106.35"/>
<polyline fill="none" stroke="black" points="631.02,-104.28 562.06,-104.28 "/>
<polyline fill="none" stroke="black" points="631.02,-104.28 631.02,-87.75 "/>
<polyline fill="none" stroke="black" points="631.02,-104.28 633.09,-106.35 "/>
<text text-anchor="middle" x="597.57" y="-94.35" font-family="Helvetica,sans-Serif" font-size="9.00" fill="#c40b0a">jsonwebtoken</text>
</a>
</g>
</g>
<!-- api/utils/createToken.js&#45;&gt;node_modules/jsonwebtoken -->
<g id="edge38" class="edge">
<title>api/utils/createToken.js&#45;&gt;node_modules/jsonwebtoken</title>
<path fill="none" stroke="#000000" stroke-opacity="0.200000" d="M414.44,-284.43C420.47,-282.07 426.17,-278.74 430.54,-274.05 441.42,-262.38 427.92,-250.96 438.54,-239.05 472.26,-201.21 514.95,-241.06 546.06,-201.05 558.12,-185.55 542.17,-128.67 554.06,-113.05 554.85,-112.01 555.72,-111.05 556.64,-110.14"/>
<polygon fill="#000000" fill-opacity="0.200000" stroke="#000000" stroke-opacity="0.200000" points="558.32,-111.49 561.72,-106.11 555.72,-108.19 558.32,-111.49"/>
</g>
<!-- crypto -->
<g id="node32" class="node">
<title>crypto</title>
<path fill="#ffffcc" stroke="grey" d="M513.1,-195.35C513.1,-195.35 471.5,-195.35 471.5,-195.35 468.4,-195.35 465.3,-192.25 465.3,-189.15 465.3,-189.15 465.3,-182.95 465.3,-182.95 465.3,-179.85 468.4,-176.75 471.5,-176.75 471.5,-176.75 513.1,-176.75 513.1,-176.75 516.2,-176.75 519.3,-179.85 519.3,-182.95 519.3,-182.95 519.3,-189.15 519.3,-189.15 519.3,-192.25 516.2,-195.35 513.1,-195.35"/>
<text text-anchor="middle" x="492.3" y="-183.35" font-family="Helvetica,sans-Serif" font-size="9.00" fill="grey">crypto</text>
</g>
<!-- api/utils/hashPassword.js&#45;&gt;crypto -->
<g id="edge39" class="edge">
<title>api/utils/hashPassword.js&#45;&gt;crypto</title>
<path fill="none" stroke="#000000" stroke-dasharray="5,2" stroke-opacity="0.200000" d="M418.88,-251.38C423.22,-249.24 427.24,-246.52 430.54,-243.05 440.65,-232.43 429.25,-222.39 438.54,-211.05 443.97,-204.43 451.56,-199.45 459.29,-195.76"/>
<polygon fill="#000000" fill-opacity="0.200000" stroke="#000000" stroke-opacity="0.200000" points="460.54,-197.51 465.2,-193.18 458.86,-193.66 460.54,-197.51"/>
</g>
<!-- api/business&#45;logic/register.js -->
<g id="node8" class="node">
<title>api/business&#45;logic/register.js</title>
<g id="a_node8"><a xlink:href="api/business-logic/register.js" xlink:title="register.js">
<path fill="#ffffcc" stroke="black" d="M311.81,-391.35C311.81,-391.35 269.22,-391.35 269.22,-391.35 266.12,-391.35 263.02,-388.25 263.02,-385.15 263.02,-385.15 263.02,-378.95 263.02,-378.95 263.02,-375.85 266.12,-372.75 269.22,-372.75 269.22,-372.75 311.81,-372.75 311.81,-372.75 314.91,-372.75 318.02,-375.85 318.02,-378.95 318.02,-378.95 318.02,-385.15 318.02,-385.15 318.02,-388.25 314.91,-391.35 311.81,-391.35"/>
<text text-anchor="middle" x="290.52" y="-379.35" font-family="Helvetica,sans-Serif" font-size="9.00">register.js</text>
</a>
</g>
</g>
<!-- api/business&#45;logic/register.js&#45;&gt;api/data&#45;access/mongodbAccess.js -->
<g id="edge7" class="edge">
<title>api/business&#45;logic/register.js&#45;&gt;api/data&#45;access/mongodbAccess.js</title>
<path fill="none" stroke="#000000" stroke-width="2" stroke-opacity="0.200000" d="M318.12,-390C349.05,-397.46 399.78,-403.88 430.54,-377.05 446.18,-363.41 427.85,-348.83 438.54,-331.05 445.63,-319.26 457.47,-309.59 468.14,-302.61"/>
<polygon fill="#000000" fill-opacity="0.200000" stroke="#000000" stroke-width="2" stroke-opacity="0.200000" points="469.29,-304.37 473.26,-299.41 467.06,-300.81 469.29,-304.37"/>
</g>
<!-- api/business&#45;logic/register.js&#45;&gt;api/utils/hashPassword.js -->
<g id="edge8" class="edge">
<title>api/business&#45;logic/register.js&#45;&gt;api/utils/hashPassword.js</title>
<path fill="none" stroke="#000000" stroke-width="2" stroke-opacity="0.200000" d="M311.83,-372.67C314.24,-370.79 316.41,-368.6 318.02,-366.05 328.84,-348.86 314.07,-290.9 326.77,-275.05 327.75,-273.83 328.83,-272.7 329.98,-271.65"/>
<polygon fill="#000000" fill-opacity="0.200000" stroke="#000000" stroke-width="2" stroke-opacity="0.200000" points="331.25,-273.32 334.77,-268.03 328.72,-269.97 331.25,-273.32"/>
</g>
<!-- api/business&#45;logic/users.js -->
<g id="node9" class="node">
<title>api/business&#45;logic/users.js</title>
<g id="a_node9"><a xlink:href="api/business-logic/users.js" xlink:title="users.js">
<path fill="#ffffcc" stroke="black" d="M311.32,-360.35C311.32,-360.35 269.72,-360.35 269.72,-360.35 266.62,-360.35 263.52,-357.25 263.52,-354.15 263.52,-354.15 263.52,-347.95 263.52,-347.95 263.52,-344.85 266.62,-341.75 269.72,-341.75 269.72,-341.75 311.32,-341.75 311.32,-341.75 314.42,-341.75 317.52,-344.85 317.52,-347.95 317.52,-347.95 317.52,-354.15 317.52,-354.15 317.52,-357.25 314.42,-360.35 311.32,-360.35"/>
<text text-anchor="middle" x="290.52" y="-348.35" font-family="Helvetica,sans-Serif" font-size="9.00">users.js</text>
</a>
</g>
</g>
<!-- api/business&#45;logic/users.js&#45;&gt;api/data&#45;access/mongodbAccess.js -->
<g id="edge9" class="edge">
<title>api/business&#45;logic/users.js&#45;&gt;api/data&#45;access/mongodbAccess.js</title>
<path fill="none" stroke="#000000" stroke-width="2" stroke-opacity="0.200000" d="M310.03,-360.55C339.07,-373.96 395.61,-393.89 430.54,-366.05 443.02,-356.1 429.96,-344.5 438.54,-331.05 445.99,-319.36 457.97,-309.66 468.64,-302.63"/>
<polygon fill="#000000" fill-opacity="0.200000" stroke="#000000" stroke-width="2" stroke-opacity="0.200000" points="469.8,-304.38 473.74,-299.39 467.55,-300.83 469.8,-304.38"/>
</g>
<!-- api/business&#45;logic/users.js&#45;&gt;api/business&#45;logic/googleBooksAPI.js -->
<g id="edge10" class="edge">
<title>api/business&#45;logic/users.js&#45;&gt;api/business&#45;logic/googleBooksAPI.js</title>
<path fill="none" stroke="#000000" stroke-width="2" stroke-opacity="0.200000" d="M317.72,-351.05C319.97,-351.05 322.3,-351.05 324.67,-351.05"/>
<polygon fill="#000000" fill-opacity="0.200000" stroke="#000000" stroke-width="2" stroke-opacity="0.200000" points="325.02,-353.15 331.02,-351.05 325.02,-348.95 325.02,-353.15"/>
</g>
<!-- api/business&#45;logic/users.js&#45;&gt;node_modules/mongodb -->
<g id="edge11" class="edge">
<title>api/business&#45;logic/users.js&#45;&gt;node_modules/mongodb</title>
<path fill="none" stroke="#000000" stroke-opacity="0.200000" d="M290.95,-341.61C289.96,-316.42 290.83,-246.91 326.77,-208.05 389.54,-140.19 506.91,-128.94 563.88,-127.69"/>
<polygon fill="#000000" fill-opacity="0.200000" stroke="#000000" stroke-opacity="0.200000" points="564.22,-129.78 570.19,-127.58 564.16,-125.58 564.22,-129.78"/>
</g>
<!-- api/config/default.js -->
<g id="node11" class="node">
<title>api/config/default.js</title>
<g id="a_node11"><a xlink:href="api/config/default.js" xlink:title="default.js">
<path fill="#ffffcc" stroke="black" d="M618.37,-422.35C618.37,-422.35 576.77,-422.35 576.77,-422.35 573.67,-422.35 570.57,-419.25 570.57,-416.15 570.57,-416.15 570.57,-409.95 570.57,-409.95 570.57,-406.85 573.67,-403.75 576.77,-403.75 576.77,-403.75 618.37,-403.75 618.37,-403.75 621.47,-403.75 624.57,-406.85 624.57,-409.95 624.57,-409.95 624.57,-416.15 624.57,-416.15 624.57,-419.25 621.47,-422.35 618.37,-422.35"/>
<text text-anchor="middle" x="597.57" y="-410.35" font-family="Helvetica,sans-Serif" font-size="9.00">default.js</text>
</a>
</g>
</g>
<!-- path -->
<g id="node12" class="node">
<title>path</title>
<path fill="#ffffcc" stroke="grey" d="M696.88,-422.35C696.88,-422.35 655.28,-422.35 655.28,-422.35 652.18,-422.35 649.08,-419.25 649.08,-416.15 649.08,-416.15 649.08,-409.95 649.08,-409.95 649.08,-406.85 652.18,-403.75 655.28,-403.75 655.28,-403.75 696.88,-403.75 696.88,-403.75 699.98,-403.75 703.08,-406.85 703.08,-409.95 703.08,-409.95 703.08,-416.15 703.08,-416.15 703.08,-419.25 699.98,-422.35 696.88,-422.35"/>
<text text-anchor="middle" x="676.08" y="-410.35" font-family="Helvetica,sans-Serif" font-size="9.00" fill="grey">path</text>
</g>
<!-- api/config/default.js&#45;&gt;path -->
<g id="edge12" class="edge">
<title>api/config/default.js&#45;&gt;path</title>
<path fill="none" stroke="#000000" stroke-dasharray="5,2" stroke-opacity="0.200000" d="M624.9,-413.05C630.62,-413.05 636.73,-413.05 642.64,-413.05"/>
<polygon fill="#000000" fill-opacity="0.200000" stroke="#000000" stroke-opacity="0.200000" points="642.96,-415.15 648.96,-413.05 642.96,-410.95 642.96,-415.15"/>
</g>
<!-- api/config/development.js -->
<g id="node13" class="node">
<title>api/config/development.js</title>
<g id="a_node13"><a xlink:href="api/config/development.js" xlink:title="development.js">
<path fill="#ccffcc" stroke="black" d="M524.12,-453.35C524.12,-453.35 460.49,-453.35 460.49,-453.35 457.39,-453.35 454.29,-450.25 454.29,-447.15 454.29,-447.15 454.29,-440.95 454.29,-440.95 454.29,-437.85 457.39,-434.75 460.49,-434.75 460.49,-434.75 524.12,-434.75 524.12,-434.75 527.22,-434.75 530.32,-437.85 530.32,-440.95 530.32,-440.95 530.32,-447.15 530.32,-447.15 530.32,-450.25 527.22,-453.35 524.12,-453.35"/>
<text text-anchor="middle" x="492.3" y="-441.35" font-family="Helvetica,sans-Serif" font-size="9.00">development.js</text>
</a>
</g>
</g>
<!-- api/config/index.js -->
<g id="node14" class="node">
<title>api/config/index.js</title>
<g id="a_node14"><a xlink:href="api/config/index.js" xlink:title="index.js">
<path fill="#ffffcc" stroke="black" d="M513.1,-422.35C513.1,-422.35 471.5,-422.35 471.5,-422.35 468.4,-422.35 465.3,-419.25 465.3,-416.15 465.3,-416.15 465.3,-409.95 465.3,-409.95 465.3,-406.85 468.4,-403.75 471.5,-403.75 471.5,-403.75 513.1,-403.75 513.1,-403.75 516.2,-403.75 519.3,-406.85 519.3,-409.95 519.3,-409.95 519.3,-416.15 519.3,-416.15 519.3,-419.25 516.2,-422.35 513.1,-422.35"/>
<text text-anchor="middle" x="492.3" y="-410.35" font-family="Helvetica,sans-Serif" font-size="9.00">index.js</text>
</a>
</g>
</g>
<!-- api/config/index.js&#45;&gt;api/config/default.js -->
<g id="edge13" class="edge">
<title>api/config/index.js&#45;&gt;api/config/default.js</title>
<path fill="none" stroke="#000000" stroke-width="2" stroke-opacity="0.200000" d="M519.36,-413.05C533.06,-413.05 549.97,-413.05 564.47,-413.05"/>
<polygon fill="#000000" fill-opacity="0.200000" stroke="#000000" stroke-width="2" stroke-opacity="0.200000" points="564.52,-415.15 570.52,-413.05 564.52,-410.95 564.52,-415.15"/>
</g>
<!-- api/config/production.js -->
<g id="node15" class="node">
<title>api/config/production.js</title>
<g id="a_node15"><a xlink:href="api/config/production.js" xlink:title="production.js">
<path fill="#ccffcc" stroke="black" d="M519.61,-391.35C519.61,-391.35 464.99,-391.35 464.99,-391.35 461.89,-391.35 458.79,-388.25 458.79,-385.15 458.79,-385.15 458.79,-378.95 458.79,-378.95 458.79,-375.85 461.89,-372.75 464.99,-372.75 464.99,-372.75 519.61,-372.75 519.61,-372.75 522.71,-372.75 525.81,-375.85 525.81,-378.95 525.81,-378.95 525.81,-385.15 525.81,-385.15 525.81,-388.25 522.71,-391.35 519.61,-391.35"/>
<text text-anchor="middle" x="492.3" y="-379.35" font-family="Helvetica,sans-Serif" font-size="9.00">production.js</text>
</a>
</g>
</g>
<!-- api/controllers/books.js -->
<g id="node17" class="node">
<title>api/controllers/books.js</title>
<g id="a_node17"><a xlink:href="api/controllers/books.js" xlink:title="books.js">
<path fill="#ffffcc" stroke="black" d="M222.81,-437.35C222.81,-437.35 181.21,-437.35 181.21,-437.35 178.11,-437.35 175.01,-434.25 175.01,-431.15 175.01,-431.15 175.01,-424.95 175.01,-424.95 175.01,-421.85 178.11,-418.75 181.21,-418.75 181.21,-418.75 222.81,-418.75 222.81,-418.75 225.91,-418.75 229.01,-421.85 229.01,-424.95 229.01,-424.95 229.01,-431.15 229.01,-431.15 229.01,-434.25 225.91,-437.35 222.81,-437.35"/>
<text text-anchor="middle" x="202.01" y="-425.35" font-family="Helvetica,sans-Serif" font-size="9.00">books.js</text>
</a>
</g>
</g>
<!-- api/controllers/books.js&#45;&gt;api/business&#45;logic/books.js -->
<g id="edge14" class="edge">
<title>api/controllers/books.js&#45;&gt;api/business&#45;logic/books.js</title>
<path fill="none" stroke="#000000" stroke-width="2" stroke-opacity="0.200000" d="M229.43,-432.94C238.24,-434.56 248.14,-436.4 257.34,-438.1"/>
<polygon fill="#000000" fill-opacity="0.200000" stroke="#000000" stroke-width="2" stroke-opacity="0.200000" points="256.97,-440.16 263.25,-439.19 257.74,-436.03 256.97,-440.16"/>
</g>
<!-- api/controllers/login.js -->
<g id="node18" class="node">
<title>api/controllers/login.js</title>
<g id="a_node18"><a xlink:href="api/controllers/login.js" xlink:title="login.js">
<path fill="#ffffcc" stroke="black" d="M222.81,-406.35C222.81,-406.35 181.21,-406.35 181.21,-406.35 178.11,-406.35 175.01,-403.25 175.01,-400.15 175.01,-400.15 175.01,-393.95 175.01,-393.95 175.01,-390.85 178.11,-387.75 181.21,-387.75 181.21,-387.75 222.81,-387.75 222.81,-387.75 225.91,-387.75 229.01,-390.85 229.01,-393.95 229.01,-393.95 229.01,-400.15 229.01,-400.15 229.01,-403.25 225.91,-406.35 222.81,-406.35"/>
<text text-anchor="middle" x="202.01" y="-394.35" font-family="Helvetica,sans-Serif" font-size="9.00">login.js</text>
</a>
</g>
</g>
<!-- api/controllers/login.js&#45;&gt;api/business&#45;logic/login.js -->
<g id="edge15" class="edge">
<title>api/controllers/login.js&#45;&gt;api/business&#45;logic/login.js</title>
<path fill="none" stroke="#000000" stroke-width="2" stroke-opacity="0.200000" d="M229.43,-401.94C238.24,-403.56 248.14,-405.4 257.34,-407.1"/>
<polygon fill="#000000" fill-opacity="0.200000" stroke="#000000" stroke-width="2" stroke-opacity="0.200000" points="256.97,-409.16 263.25,-408.19 257.74,-405.03 256.97,-409.16"/>
</g>
<!-- api/controllers/register.js -->
<g id="node19" class="node">
<title>api/controllers/register.js</title>
<g id="a_node19"><a xlink:href="api/controllers/register.js" xlink:title="register.js">
<path fill="#ffffcc" stroke="black" d="M223.31,-375.35C223.31,-375.35 180.71,-375.35 180.71,-375.35 177.61,-375.35 174.51,-372.25 174.51,-369.15 174.51,-369.15 174.51,-362.95 174.51,-362.95 174.51,-359.85 177.61,-356.75 180.71,-356.75 180.71,-356.75 223.31,-356.75 223.31,-356.75 226.41,-356.75 229.51,-359.85 229.51,-362.95 229.51,-362.95 229.51,-369.15 229.51,-369.15 229.51,-372.25 226.41,-375.35 223.31,-375.35"/>
<text text-anchor="middle" x="202.01" y="-363.35" font-family="Helvetica,sans-Serif" font-size="9.00">register.js</text>
</a>
</g>
</g>
<!-- api/controllers/register.js&#45;&gt;api/business&#45;logic/register.js -->
<g id="edge16" class="edge">
<title>api/controllers/register.js&#45;&gt;api/business&#45;logic/register.js</title>
<path fill="none" stroke="#000000" stroke-width="2" stroke-opacity="0.200000" d="M229.91,-371.02C238.45,-372.6 247.99,-374.37 256.89,-376.01"/>
<polygon fill="#000000" fill-opacity="0.200000" stroke="#000000" stroke-width="2" stroke-opacity="0.200000" points="256.65,-378.11 262.93,-377.13 257.42,-373.98 256.65,-378.11"/>
</g>
<!-- api/controllers/users.js -->
<g id="node20" class="node">
<title>api/controllers/users.js</title>
<g id="a_node20"><a xlink:href="api/controllers/users.js" xlink:title="users.js">
<path fill="#ffffcc" stroke="black" d="M222.81,-344.35C222.81,-344.35 181.21,-344.35 181.21,-344.35 178.11,-344.35 175.01,-341.25 175.01,-338.15 175.01,-338.15 175.01,-331.95 175.01,-331.95 175.01,-328.85 178.11,-325.75 181.21,-325.75 181.21,-325.75 222.81,-325.75 222.81,-325.75 225.91,-325.75 229.01,-328.85 229.01,-331.95 229.01,-331.95 229.01,-338.15 229.01,-338.15 229.01,-341.25 225.91,-344.35 222.81,-344.35"/>
<text text-anchor="middle" x="202.01" y="-332.35" font-family="Helvetica,sans-Serif" font-size="9.00">users.js</text>
</a>
</g>
</g>
<!-- api/controllers/users.js&#45;&gt;api/business&#45;logic/users.js -->
<g id="edge17" class="edge">
<title>api/controllers/users.js&#45;&gt;api/business&#45;logic/users.js</title>
<path fill="none" stroke="#000000" stroke-width="2" stroke-opacity="0.200000" d="M229.43,-339.94C238.24,-341.56 248.14,-343.4 257.34,-345.1"/>
<polygon fill="#000000" fill-opacity="0.200000" stroke="#000000" stroke-width="2" stroke-opacity="0.200000" points="256.97,-347.16 263.25,-346.19 257.74,-343.03 256.97,-347.16"/>
</g>
<!-- api/index.js -->
<g id="node22" class="node">
<title>api/index.js</title>
<g id="a_node22"><a xlink:href="api/index.js" xlink:title="index.js">
<path fill="#ffffcc" stroke="black" d="M63.8,-278.35C63.8,-278.35 22.2,-278.35 22.2,-278.35 19.1,-278.35 16,-275.25 16,-272.15 16,-272.15 16,-265.95 16,-265.95 16,-262.85 19.1,-259.75 22.2,-259.75 22.2,-259.75 63.8,-259.75 63.8,-259.75 66.9,-259.75 70,-262.85 70,-265.95 70,-265.95 70,-272.15 70,-272.15 70,-275.25 66.9,-278.35 63.8,-278.35"/>
<text text-anchor="middle" x="43" y="-266.35" font-family="Helvetica,sans-Serif" font-size="9.00">index.js</text>
</a>
</g>
</g>
<!-- api/middleware/authenticate.js -->
<g id="node23" class="node">
<title>api/middleware/authenticate.js</title>
<g id="a_node23"><a xlink:href="api/middleware/authenticate.js" xlink:title="authenticate.js">
<path fill="#ffffcc" stroke="black" d="M232.83,-237.35C232.83,-237.35 171.19,-237.35 171.19,-237.35 168.09,-237.35 164.99,-234.25 164.99,-231.15 164.99,-231.15 164.99,-224.95 164.99,-224.95 164.99,-221.85 168.09,-218.75 171.19,-218.75 171.19,-218.75 232.83,-218.75 232.83,-218.75 235.93,-218.75 239.03,-221.85 239.03,-224.95 239.03,-224.95 239.03,-231.15 239.03,-231.15 239.03,-234.25 235.93,-237.35 232.83,-237.35"/>
<text text-anchor="middle" x="202.01" y="-225.35" font-family="Helvetica,sans-Serif" font-size="9.00">authenticate.js</text>
</a>
</g>
</g>
<!-- api/index.js&#45;&gt;api/middleware/authenticate.js -->
<g id="edge20" class="edge">
<title>api/index.js&#45;&gt;api/middleware/authenticate.js</title>
<path fill="none" stroke="#000000" stroke-width="2" stroke-opacity="0.200000" d="M50,-259.69C55.97,-251.3 65.96,-239.49 78,-234.05 103.15,-222.69 134.2,-221.26 158.82,-222.63"/>
<polygon fill="#000000" fill-opacity="0.200000" stroke="#000000" stroke-width="2" stroke-opacity="0.200000" points="158.8,-224.74 164.93,-223.04 159.08,-220.54 158.8,-224.74"/>
</g>
<!-- api/routes/books.js -->
<g id="node24" class="node">
<title>api/routes/books.js</title>
<g id="a_node24"><a xlink:href="api/routes/books.js" xlink:title="books.js">
<path fill="#ffffcc" stroke="black" d="M134.3,-356.35C134.3,-356.35 92.7,-356.35 92.7,-356.35 89.6,-356.35 86.5,-353.25 86.5,-350.15 86.5,-350.15 86.5,-343.95 86.5,-343.95 86.5,-340.85 89.6,-337.75 92.7,-337.75 92.7,-337.75 134.3,-337.75 134.3,-337.75 137.4,-337.75 140.5,-340.85 140.5,-343.95 140.5,-343.95 140.5,-350.15 140.5,-350.15 140.5,-353.25 137.4,-356.35 134.3,-356.35"/>
<text text-anchor="middle" x="113.5" y="-344.35" font-family="Helvetica,sans-Serif" font-size="9.00">books.js</text>
</a>
</g>
</g>
<!-- api/index.js&#45;&gt;api/routes/books.js -->
<g id="edge21" class="edge">
<title>api/index.js&#45;&gt;api/routes/books.js</title>
<path fill="none" stroke="#000000" stroke-width="2" stroke-opacity="0.200000" d="M47.1,-278.65C51.84,-291.98 62.04,-316.13 78,-331.05 79.27,-332.23 80.64,-333.34 82.07,-334.38"/>
<polygon fill="#000000" fill-opacity="0.200000" stroke="#000000" stroke-width="2" stroke-opacity="0.200000" points="80.99,-336.18 87.18,-337.63 83.25,-332.64 80.99,-336.18"/>
</g>
<!-- api/routes/login.js -->
<g id="node25" class="node">
<title>api/routes/login.js</title>
<g id="a_node25"><a xlink:href="api/routes/login.js" xlink:title="login.js">
<path fill="#ffffcc" stroke="black" d="M134.3,-325.35C134.3,-325.35 92.7,-325.35 92.7,-325.35 89.6,-325.35 86.5,-322.25 86.5,-319.15 86.5,-319.15 86.5,-312.95 86.5,-312.95 86.5,-309.85 89.6,-306.75 92.7,-306.75 92.7,-306.75 134.3,-306.75 134.3,-306.75 137.4,-306.75 140.5,-309.85 140.5,-312.95 140.5,-312.95 140.5,-319.15 140.5,-319.15 140.5,-322.25 137.4,-325.35 134.3,-325.35"/>
<text text-anchor="middle" x="113.5" y="-313.35" font-family="Helvetica,sans-Serif" font-size="9.00">login.js</text>
</a>
</g>
</g>
<!-- api/index.js&#45;&gt;api/routes/login.js -->
<g id="edge22" class="edge">
<title>api/index.js&#45;&gt;api/routes/login.js</title>
<path fill="none" stroke="#000000" stroke-width="2" stroke-opacity="0.200000" d="M52.88,-278.56C59.39,-285.17 68.69,-293.86 78,-300.05 79.93,-301.33 81.97,-302.56 84.07,-303.73"/>
<polygon fill="#000000" fill-opacity="0.200000" stroke="#000000" stroke-width="2" stroke-opacity="0.200000" points="83.4,-305.75 89.69,-306.68 85.35,-302.03 83.4,-305.75"/>
</g>
<!-- api/routes/register.js -->
<g id="node26" class="node">
<title>api/routes/register.js</title>
<g id="a_node26"><a xlink:href="api/routes/register.js" xlink:title="register.js">
<path fill="#ffffcc" stroke="black" d="M134.8,-294.35C134.8,-294.35 92.2,-294.35 92.2,-294.35 89.1,-294.35 86,-291.25 86,-288.15 86,-288.15 86,-281.95 86,-281.95 86,-278.85 89.1,-275.75 92.2,-275.75 92.2,-275.75 134.8,-275.75 134.8,-275.75 137.9,-275.75 141,-278.85 141,-281.95 141,-281.95 141,-288.15 141,-288.15 141,-291.25 137.9,-294.35 134.8,-294.35"/>
<text text-anchor="middle" x="113.5" y="-282.35" font-family="Helvetica,sans-Serif" font-size="9.00">register.js</text>
</a>
</g>
</g>
<!-- api/index.js&#45;&gt;api/routes/register.js -->
<g id="edge23" class="edge">
<title>api/index.js&#45;&gt;api/routes/register.js</title>
<path fill="none" stroke="#000000" stroke-width="2" stroke-opacity="0.200000" d="M70.29,-275.19C73.49,-275.94 76.8,-276.71 80.08,-277.48"/>
<polygon fill="#000000" fill-opacity="0.200000" stroke="#000000" stroke-width="2" stroke-opacity="0.200000" points="79.62,-279.53 85.94,-278.85 80.58,-275.44 79.62,-279.53"/>
</g>
<!-- api/routes/users.js -->
<g id="node27" class="node">
<title>api/routes/users.js</title>
<g id="a_node27"><a xlink:href="api/routes/users.js" xlink:title="users.js">
<path fill="#ffffcc" stroke="black" d="M134.3,-263.35C134.3,-263.35 92.7,-263.35 92.7,-263.35 89.6,-263.35 86.5,-260.25 86.5,-257.15 86.5,-257.15 86.5,-250.95 86.5,-250.95 86.5,-247.85 89.6,-244.75 92.7,-244.75 92.7,-244.75 134.3,-244.75 134.3,-244.75 137.4,-244.75 140.5,-247.85 140.5,-250.95 140.5,-250.95 140.5,-257.15 140.5,-257.15 140.5,-260.25 137.4,-263.35 134.3,-263.35"/>
<text text-anchor="middle" x="113.5" y="-251.35" font-family="Helvetica,sans-Serif" font-size="9.00">users.js</text>
</a>
</g>
</g>
<!-- api/index.js&#45;&gt;api/routes/users.js -->
<g id="edge24" class="edge">
<title>api/index.js&#45;&gt;api/routes/users.js</title>
<path fill="none" stroke="#000000" stroke-width="2" stroke-opacity="0.200000" d="M70.29,-263.29C73.59,-262.57 76.99,-261.82 80.37,-261.08"/>
<polygon fill="#000000" fill-opacity="0.200000" stroke="#000000" stroke-width="2" stroke-opacity="0.200000" points="80.98,-263.1 86.39,-259.76 80.08,-259 80.98,-263.1"/>
</g>
<!-- node_modules/express -->
<g id="node28" class="node">
<title>node_modules/express</title>
<g id="a_node28"><a xlink:href="node_modules/express" xlink:title="express">
<polygon fill="#c40b0a" fill-opacity="0.101961" stroke="black" points="624.57,-75.35 572.64,-75.35 570.57,-73.28 570.57,-56.75 622.51,-56.75 624.57,-58.81 624.57,-75.35"/>
<polyline fill="none" stroke="black" points="622.51,-73.28 570.57,-73.28 "/>
<polyline fill="none" stroke="black" points="622.51,-73.28 622.51,-56.75 "/>
<polyline fill="none" stroke="black" points="622.51,-73.28 624.57,-75.35 "/>
<text text-anchor="middle" x="597.57" y="-63.35" font-family="Helvetica,sans-Serif" font-size="9.00" fill="#c40b0a">express</text>
</a>
</g>
</g>
<!-- api/index.js&#45;&gt;node_modules/express -->
<g id="edge25" class="edge">
<title>api/index.js&#45;&gt;node_modules/express</title>
<path fill="none" stroke="#000000" stroke-opacity="0.200000" d="M44.89,-259.55C49.9,-211.98 78.94,-2.05 201.01,-2.05 201.01,-2.05 201.01,-2.05 377.78,-2.05 453.21,-2.05 476.94,6.15 546.06,-24.05 560.79,-30.48 574.61,-42.56 584.06,-52.12"/>
<polygon fill="#000000" fill-opacity="0.200000" stroke="#000000" stroke-opacity="0.200000" points="582.66,-53.7 588.33,-56.58 585.7,-50.79 582.66,-53.7"/>
</g>
<!-- api/utils/validateToken.js -->
<g id="node29" class="node">
<title>api/utils/validateToken.js</title>
<g id="a_node29"><a xlink:href="api/utils/validateToken.js" xlink:title="validateToken.js">
<path fill="#ffffcc" stroke="black" d="M411.09,-237.35C411.09,-237.35 342.47,-237.35 342.47,-237.35 339.37,-237.35 336.26,-234.25 336.26,-231.15 336.26,-231.15 336.26,-224.95 336.26,-224.95 336.26,-221.85 339.37,-218.75 342.47,-218.75 342.47,-218.75 411.09,-218.75 411.09,-218.75 414.19,-218.75 417.29,-221.85 417.29,-224.95 417.29,-224.95 417.29,-231.15 417.29,-231.15 417.29,-234.25 414.19,-237.35 411.09,-237.35"/>
<text text-anchor="middle" x="376.78" y="-225.35" font-family="Helvetica,sans-Serif" font-size="9.00">validateToken.js</text>
</a>
</g>
</g>
<!-- api/middleware/authenticate.js&#45;&gt;api/utils/validateToken.js -->
<g id="edge26" class="edge">
<title>api/middleware/authenticate.js&#45;&gt;api/utils/validateToken.js</title>
<path fill="none" stroke="#000000" stroke-width="2" stroke-opacity="0.200000" d="M239.23,-228.05C265.54,-228.05 301.35,-228.05 329.69,-228.05"/>
<polygon fill="#000000" fill-opacity="0.200000" stroke="#000000" stroke-width="2" stroke-opacity="0.200000" points="329.99,-230.15 335.99,-228.05 329.99,-225.95 329.99,-230.15"/>
</g>
<!-- api/routes/books.js&#45;&gt;api/controllers/books.js -->
<g id="edge28" class="edge">
<title>api/routes/books.js&#45;&gt;api/controllers/books.js</title>
<path fill="none" stroke="#000000" stroke-width="2" stroke-opacity="0.200000" d="M118.28,-356.38C124.4,-370.38 137.77,-396.81 157,-412.05 160.67,-414.96 164.92,-417.37 169.3,-419.36"/>
<polygon fill="#000000" fill-opacity="0.200000" stroke="#000000" stroke-width="2" stroke-opacity="0.200000" points="168.54,-421.32 174.89,-421.66 170.14,-417.44 168.54,-421.32"/>
</g>
<!-- api/routes/books.js&#45;&gt;node_modules/express -->
<g id="edge29" class="edge">
<title>api/routes/books.js&#45;&gt;node_modules/express</title>
<path fill="none" stroke="#000000" stroke-opacity="0.200000" d="M140.6,-338.81C143.88,-336.76 146.83,-334.21 149,-331.05 164.48,-308.45 144.11,-232.22 157,-208.05 191.97,-142.47 215.19,-106.05 289.52,-106.05 289.52,-106.05 289.52,-106.05 377.78,-106.05 453.21,-106.05 472.73,-101.7 546.06,-84.05 553.21,-82.33 560.74,-79.96 567.76,-77.51"/>
<polygon fill="#000000" fill-opacity="0.200000" stroke="#000000" stroke-opacity="0.200000" points="568.57,-79.44 573.5,-75.43 567.14,-75.49 568.57,-79.44"/>
</g>
<!-- api/routes/login.js&#45;&gt;api/controllers/login.js -->
<g id="edge30" class="edge">
<title>api/routes/login.js&#45;&gt;api/controllers/login.js</title>
<path fill="none" stroke="#000000" stroke-width="2" stroke-opacity="0.200000" d="M140.68,-324.69C143.85,-326.68 146.76,-329.1 149,-332.05 162.34,-349.63 142.92,-364.06 157,-381.05 160.28,-385.01 164.63,-387.99 169.31,-390.23"/>
<polygon fill="#000000" fill-opacity="0.200000" stroke="#000000" stroke-width="2" stroke-opacity="0.200000" points="168.57,-392.2 174.92,-392.54 170.17,-388.31 168.57,-392.2"/>
</g>
<!-- api/routes/login.js&#45;&gt;node_modules/express -->
<g id="edge31" class="edge">
<title>api/routes/login.js&#45;&gt;node_modules/express</title>
<path fill="none" stroke="#000000" stroke-opacity="0.200000" d="M140.68,-307.86C143.94,-305.8 146.87,-303.24 149,-300.05 161.58,-281.17 141.62,-112.72 157,-96.05 197.22,-52.44 230.19,-80.05 289.52,-80.05 289.52,-80.05 289.52,-80.05 377.78,-80.05 444.17,-80.05 521.66,-73.55 564.3,-69.41"/>
<polygon fill="#000000" fill-opacity="0.200000" stroke="#000000" stroke-opacity="0.200000" points="564.57,-71.49 570.34,-68.81 564.16,-67.31 564.57,-71.49"/>
</g>
<!-- api/routes/register.js&#45;&gt;api/controllers/register.js -->
<g id="edge32" class="edge">
<title>api/routes/register.js&#45;&gt;api/controllers/register.js</title>
<path fill="none" stroke="#000000" stroke-width="2" stroke-opacity="0.200000" d="M141.01,-293.91C144.06,-295.85 146.84,-298.21 149,-301.05 162.34,-318.63 142.92,-333.06 157,-350.05 160.13,-353.83 164.24,-356.72 168.69,-358.93"/>
<polygon fill="#000000" fill-opacity="0.200000" stroke="#000000" stroke-width="2" stroke-opacity="0.200000" points="168.12,-360.97 174.46,-361.37 169.76,-357.1 168.12,-360.97"/>
</g>
<!-- api/routes/register.js&#45;&gt;node_modules/express -->
<g id="edge33" class="edge">
<title>api/routes/register.js&#45;&gt;node_modules/express</title>
<path fill="none" stroke="#000000" stroke-opacity="0.200000" d="M141.01,-276.64C144.14,-274.62 146.95,-272.12 149,-269.05 161.28,-250.64 141.99,-86.31 157,-70.05 197.24,-26.46 230.19,-54.05 289.52,-54.05 289.52,-54.05 289.52,-54.05 377.78,-54.05 444.13,-54.05 521.64,-59.62 564.29,-63.17"/>
<polygon fill="#000000" fill-opacity="0.200000" stroke="#000000" stroke-opacity="0.200000" points="564.17,-65.27 570.33,-63.68 564.53,-61.08 564.17,-65.27"/>
</g>
<!-- api/routes/users.js&#45;&gt;api/controllers/users.js -->
<g id="edge34" class="edge">
<title>api/routes/users.js&#45;&gt;api/controllers/users.js</title>
<path fill="none" stroke="#000000" stroke-width="2" stroke-opacity="0.200000" d="M140.71,-263.15C143.81,-265.06 146.68,-267.34 149,-270.05 157.41,-279.89 149.96,-287.19 157,-298.05 163.02,-307.34 172.09,-315.53 180.44,-321.83"/>
<polygon fill="#000000" fill-opacity="0.200000" stroke="#000000" stroke-width="2" stroke-opacity="0.200000" points="179.41,-323.68 185.51,-325.5 181.88,-320.28 179.41,-323.68"/>
</g>
<!-- api/routes/users.js&#45;&gt;node_modules/express -->
<g id="edge36" class="edge">
<title>api/routes/users.js&#45;&gt;node_modules/express</title>
<path fill="none" stroke="#000000" stroke-opacity="0.200000" d="M115,-244.4C117.16,-206.95 126.94,-71.81 157,-44.05 200.58,-3.8 230.19,-28.05 289.52,-28.05 289.52,-28.05 289.52,-28.05 377.78,-28.05 452.91,-28.05 473.32,-25.26 546.06,-44.05 555.24,-46.42 564.89,-50.25 573.26,-54.06"/>
<polygon fill="#000000" fill-opacity="0.200000" stroke="#000000" stroke-opacity="0.200000" points="572.51,-56.03 578.83,-56.67 574.29,-52.23 572.51,-56.03"/>
</g>
<!-- api/middleware/authorize.js -->
<g id="node30" class="node">
<title>api/middleware/authorize.js</title>
<g id="a_node30"><a xlink:href="api/middleware/authorize.js" xlink:title="authorize.js">
<path fill="#ffffcc" stroke="black" d="M226.82,-268.35C226.82,-268.35 177.2,-268.35 177.2,-268.35 174.1,-268.35 171,-265.25 171,-262.15 171,-262.15 171,-255.95 171,-255.95 171,-252.85 174.1,-249.75 177.2,-249.75 177.2,-249.75 226.82,-249.75 226.82,-249.75 229.92,-249.75 233.02,-252.85 233.02,-255.95 233.02,-255.95 233.02,-262.15 233.02,-262.15 233.02,-265.25 229.92,-268.35 226.82,-268.35"/>
<text text-anchor="middle" x="202.01" y="-256.35" font-family="Helvetica,sans-Serif" font-size="9.00">authorize.js</text>
</a>
</g>
</g>
<!-- api/routes/users.js&#45;&gt;api/middleware/authorize.js -->
<g id="edge35" class="edge">
<title>api/routes/users.js&#45;&gt;api/middleware/authorize.js</title>
<path fill="none" stroke="#000000" stroke-width="2" stroke-opacity="0.200000" d="M140.92,-255.58C148.45,-256.01 156.78,-256.49 164.77,-256.95"/>
<polygon fill="#000000" fill-opacity="0.200000" stroke="#000000" stroke-width="2" stroke-opacity="0.200000" points="164.7,-259.05 170.81,-257.3 164.94,-254.86 164.7,-259.05"/>
</g>
<!-- api/utils/validateToken.js&#45;&gt;api/config/tokens.js -->
<g id="edge40" class="edge">
<title>api/utils/validateToken.js&#45;&gt;api/config/tokens.js</title>
<path fill="none" stroke="#000000" stroke-width="2" stroke-opacity="0.200000" d="M417.34,-234.24C422.4,-236.58 427.03,-239.75 430.54,-244.05 442.55,-258.74 427.29,-313.77 438.54,-329.05 443.61,-335.93 451.23,-340.67 459.12,-343.93"/>
<polygon fill="#000000" fill-opacity="0.200000" stroke="#000000" stroke-width="2" stroke-opacity="0.200000" points="458.81,-346.05 465.16,-346.15 460.25,-342.11 458.81,-346.05"/>
</g>
<!-- api/utils/validateToken.js&#45;&gt;node_modules/jsonwebtoken -->
<g id="edge41" class="edge">
<title>api/utils/validateToken.js&#45;&gt;node_modules/jsonwebtoken</title>
<path fill="none" stroke="#000000" stroke-opacity="0.200000" d="M386.13,-218.68C397.25,-206.61 417.9,-185.45 438.54,-171.05 485.65,-138.17 501.44,-136.09 554.06,-113.05 557.48,-111.55 561.08,-110.07 564.68,-108.63"/>
<polygon fill="#000000" fill-opacity="0.200000" stroke="#000000" stroke-opacity="0.200000" points="565.49,-110.57 570.32,-106.43 563.97,-106.66 565.49,-110.57"/>
</g>
<!-- api/middleware/authorize.js&#45;&gt;api/business&#45;logic/books.js -->
<g id="edge27" class="edge">
<title>api/middleware/authorize.js&#45;&gt;api/business&#45;logic/books.js</title>
<path fill="none" stroke="#000000" stroke-width="2" stroke-opacity="0.200000" d="M213.53,-268.6C224.1,-278.9 239.8,-296.36 247.02,-315.05 256.08,-338.53 240.73,-407.32 255.02,-428.05 256.04,-429.53 257.23,-430.87 258.54,-432.09"/>
<polygon fill="#000000" fill-opacity="0.200000" stroke="#000000" stroke-width="2" stroke-opacity="0.200000" points="257.38,-433.85 263.43,-435.8 259.92,-430.5 257.38,-433.85"/>
</g>
</g>
</svg>
