<?xml version="1.0" encoding="UTF-8" standalone="no"?>
<!DOCTYPE svg PUBLIC "-//W3C//DTD SVG 1.1//EN"
 "http://www.w3.org/Graphics/SVG/1.1/DTD/svg11.dtd">
<!-- Generated by graphviz version 2.44.0 (20200408.0750)
 -->
<!-- Title: dependency&#45;cruiser output Pages: 1 -->
<svg width="705pt" height="446pt"
 viewBox="0.00 0.00 705.30 446.00" xmlns="http://www.w3.org/2000/svg" xmlns:xlink="http://www.w3.org/1999/xlink">
<g id="graph0" class="graph" transform="scale(1 1) rotate(0) translate(4 442)">
<title>dependency&#45;cruiser output</title>
<polygon fill="white" stroke="transparent" points="-4,4 -4,-442 701.3,-442 701.3,4 -4,4"/>
<g id="clust1" class="cluster">
<title>cluster_api</title>
<path fill="#ffffff" stroke="black" stroke-width="2" d="M20,-157C20,-157 623.3,-157 623.3,-157 629.3,-157 635.3,-163 635.3,-169 635.3,-169 635.3,-418 635.3,-418 635.3,-424 629.3,-430 623.3,-430 623.3,-430 20,-430 20,-430 14,-430 8,-424 8,-418 8,-418 8,-169 8,-169 8,-163 14,-157 20,-157"/>
<text text-anchor="middle" x="321.65" y="-417.9" font-family="Helvetica,sans-Serif" font-weight="bold" font-size="9.00">api</text>
</g>
<g id="clust2" class="cluster">
<title>cluster_api/business&#45;logic</title>
<path fill="#ffffff" stroke="black" stroke-width="2" d="M275.02,-165C275.02,-165 324.02,-165 324.02,-165 330.02,-165 336.02,-171 336.02,-177 336.02,-177 336.02,-299 336.02,-299 336.02,-305 330.02,-311 324.02,-311 324.02,-311 275.02,-311 275.02,-311 269.02,-311 263.02,-305 263.02,-299 263.02,-299 263.02,-177 263.02,-177 263.02,-171 269.02,-165 275.02,-165"/>
<text text-anchor="middle" x="299.52" y="-298.9" font-family="Helvetica,sans-Serif" font-weight="bold" font-size="9.00">business&#45;logic</text>
</g>
<g id="clust3" class="cluster">
<title>cluster_api/config</title>
<path fill="#ffffff" stroke="black" stroke-width="2" d="M479.53,-257C479.53,-257 615.3,-257 615.3,-257 621.3,-257 627.3,-263 627.3,-269 627.3,-269 627.3,-391 627.3,-391 627.3,-397 621.3,-403 615.3,-403 615.3,-403 479.53,-403 479.53,-403 473.53,-403 467.53,-397 467.53,-391 467.53,-391 467.53,-269 467.53,-269 467.53,-263 473.53,-257 479.53,-257"/>
<text text-anchor="middle" x="547.42" y="-390.9" font-family="Helvetica,sans-Serif" font-weight="bold" font-size="9.00">config</text>
</g>
<g id="clust4" class="cluster">
<title>cluster_api/controllers</title>
<path fill="#ffffff" stroke="black" stroke-width="2" d="M178.51,-165C178.51,-165 225.51,-165 225.51,-165 231.51,-165 237.51,-171 237.51,-177 237.51,-177 237.51,-299 237.51,-299 237.51,-305 231.51,-311 225.51,-311 225.51,-311 178.51,-311 178.51,-311 172.51,-311 166.51,-305 166.51,-299 166.51,-299 166.51,-177 166.51,-177 166.51,-171 172.51,-165 178.51,-165"/>
<text text-anchor="middle" x="202.01" y="-298.9" font-family="Helvetica,sans-Serif" font-weight="bold" font-size="9.00">controllers</text>
</g>
<g id="clust5" class="cluster">
<title>cluster_api/data&#45;access</title>
<path fill="#ffffff" stroke="black" stroke-width="2" d="M364.02,-165C364.02,-165 447.53,-165 447.53,-165 453.53,-165 459.53,-171 459.53,-177 459.53,-177 459.53,-206 459.53,-206 459.53,-212 453.53,-218 447.53,-218 447.53,-218 364.02,-218 364.02,-218 358.02,-218 352.02,-212 352.02,-206 352.02,-206 352.02,-177 352.02,-177 352.02,-171 358.02,-165 364.02,-165"/>
<text text-anchor="middle" x="405.78" y="-205.9" font-family="Helvetica,sans-Serif" font-weight="bold" font-size="9.00">data&#45;access</text>
</g>
<g id="clust6" class="cluster">
<title>cluster_api/middleware</title>
<path fill="#ffffff" stroke="black" stroke-width="2" d="M169,-319C169,-319 235.02,-319 235.02,-319 241.02,-319 247.02,-325 247.02,-331 247.02,-331 247.02,-391 247.02,-391 247.02,-397 241.02,-403 235.02,-403 235.02,-403 169,-403 169,-403 163,-403 157,-397 157,-391 157,-391 157,-331 157,-331 157,-325 163,-319 169,-319"/>
<text text-anchor="middle" x="202.01" y="-390.9" font-family="Helvetica,sans-Serif" font-weight="bold" font-size="9.00">middleware</text>
</g>
<g id="clust7" class="cluster">
<title>cluster_api/routes</title>
<path fill="#ffffff" stroke="black" stroke-width="2" d="M90,-165C90,-165 137,-165 137,-165 143,-165 149,-171 149,-177 149,-177 149,-299 149,-299 149,-305 143,-311 137,-311 137,-311 90,-311 90,-311 84,-311 78,-305 78,-299 78,-299 78,-177 78,-177 78,-171 84,-165 90,-165"/>
<text text-anchor="middle" x="113.5" y="-298.9" font-family="Helvetica,sans-Serif" font-weight="bold" font-size="9.00">routes</text>
</g>
<g id="clust8" class="cluster">
<title>cluster_api/utils</title>
<path fill="#ffffff" stroke="black" stroke-width="2" d="M367.77,-226C367.77,-226 443.78,-226 443.78,-226 449.78,-226 455.78,-232 455.78,-238 455.78,-238 455.78,-329 455.78,-329 455.78,-335 449.78,-341 443.78,-341 443.78,-341 367.77,-341 367.77,-341 361.77,-341 355.77,-335 355.77,-329 355.77,-329 355.77,-238 355.77,-238 355.77,-232 361.77,-226 367.77,-226"/>
<text text-anchor="middle" x="405.78" y="-328.9" font-family="Helvetica,sans-Serif" font-weight="bold" font-size="9.00">utils</text>
</g>
<g id="clust9" class="cluster">
<title>cluster_node_modules</title>
<path fill="#ffffff" stroke="black" stroke-width="2" d="M482.28,-8C482.28,-8 545.3,-8 545.3,-8 551.3,-8 557.3,-14 557.3,-20 557.3,-20 557.3,-111 557.3,-111 557.3,-117 551.3,-123 545.3,-123 545.3,-123 482.28,-123 482.28,-123 476.28,-123 470.28,-117 470.28,-111 470.28,-111 470.28,-20 470.28,-20 470.28,-14 476.28,-8 482.28,-8"/>
<text text-anchor="middle" x="513.79" y="-110.9" font-family="Helvetica,sans-Serif" font-weight="bold" font-size="9.00">node_modules</text>
</g>
<!-- api/business&#45;logic/books.js -->
<g id="node1" class="node">
<title>api/business&#45;logic/books.js</title>
<g id="a_node1"><a xlink:href="api/business-logic/books.js" xlink:title="books.js">
<path fill="#ffffcc" stroke="black" d="M320.32,-253.3C320.32,-253.3 278.72,-253.3 278.72,-253.3 275.62,-253.3 272.52,-250.2 272.52,-247.1 272.52,-247.1 272.52,-240.9 272.52,-240.9 272.52,-237.8 275.62,-234.7 278.72,-234.7 278.72,-234.7 320.32,-234.7 320.32,-234.7 323.42,-234.7 326.52,-237.8 326.52,-240.9 326.52,-240.9 326.52,-247.1 326.52,-247.1 326.52,-250.2 323.42,-253.3 320.32,-253.3"/>
<text text-anchor="middle" x="299.52" y="-241.3" font-family="Helvetica,sans-Serif" font-size="9.00">books.js</text>
</a>
</g>
</g>
<!-- api/data&#45;access/mongodbAccess.js -->
<g id="node2" class="node">
<title>api/data&#45;access/mongodbAccess.js</title>
<g id="a_node2"><a xlink:href="api/data-access/mongodbAccess.js" xlink:title="mongodbAccess.js">
<path fill="#ffffcc" stroke="black" d="M445.09,-191.3C445.09,-191.3 366.46,-191.3 366.46,-191.3 363.36,-191.3 360.26,-188.2 360.26,-185.1 360.26,-185.1 360.26,-178.9 360.26,-178.9 360.26,-175.8 363.36,-172.7 366.46,-172.7 366.46,-172.7 445.09,-172.7 445.09,-172.7 448.19,-172.7 451.29,-175.8 451.29,-178.9 451.29,-178.9 451.29,-185.1 451.29,-185.1 451.29,-188.2 448.19,-191.3 445.09,-191.3"/>
<text text-anchor="middle" x="405.78" y="-179.3" font-family="Helvetica,sans-Serif" font-size="9.00">mongodbAccess.js</text>
</a>
</g>
</g>
<!-- api/business&#45;logic/books.js&#45;&gt;api/data&#45;access/mongodbAccess.js -->
<g id="edge1" class="edge">
<title>api/business&#45;logic/books.js&#45;&gt;api/data&#45;access/mongodbAccess.js</title>
<path fill="none" stroke="#000000" stroke-width="2" stroke-opacity="0.200000" d="M322.95,-234.57C327.35,-232.53 331.88,-230.3 336.02,-228 353.98,-218.03 373.33,-204.85 386.91,-195.15"/>
<polygon fill="#000000" fill-opacity="0.200000" stroke="#000000" stroke-width="2" stroke-opacity="0.200000" points="388.36,-196.7 392,-191.49 385.9,-193.29 388.36,-196.7"/>
</g>
<!-- node_modules/mongodb -->
<g id="node8" class="node">
<title>node_modules/mongodb</title>
<g id="a_node8"><a xlink:href="node_modules/mongodb" xlink:title="mongodb">
<polygon fill="#c40b0a" fill-opacity="0.101961" stroke="black" points="540.79,-65.3 488.86,-65.3 486.79,-63.23 486.79,-46.7 538.72,-46.7 540.79,-48.77 540.79,-65.3"/>
<polyline fill="none" stroke="black" points="538.72,-63.23 486.79,-63.23 "/>
<polyline fill="none" stroke="black" points="538.72,-63.23 538.72,-46.7 "/>
<polyline fill="none" stroke="black" points="538.72,-63.23 540.79,-65.3 "/>
<text text-anchor="middle" x="513.79" y="-53.3" font-family="Helvetica,sans-Serif" font-size="9.00" fill="#c40b0a">mongodb</text>
</a>
</g>
</g>
<!-- api/data&#45;access/mongodbAccess.js&#45;&gt;node_modules/mongodb -->
<g id="edge15" class="edge">
<title>api/data&#45;access/mongodbAccess.js&#45;&gt;node_modules/mongodb</title>
<path fill="none" stroke="#000000" stroke-opacity="0.200000" d="M443.88,-172.63C449.95,-169.54 455.54,-165.44 459.53,-160 471.15,-144.17 455.48,-87.5 467.53,-72 470.99,-67.55 475.77,-64.34 480.94,-62.02"/>
<polygon fill="#000000" fill-opacity="0.200000" stroke="#000000" stroke-opacity="0.200000" points="481.81,-63.94 486.66,-59.83 480.31,-60.01 481.81,-63.94"/>
</g>
<!-- api/business&#45;logic/login.js -->
<g id="node3" class="node">
<title>api/business&#45;logic/login.js</title>
<g id="a_node3"><a xlink:href="api/business-logic/login.js" xlink:title="login.js">
<path fill="#ffffcc" stroke="black" d="M320.32,-284.3C320.32,-284.3 278.72,-284.3 278.72,-284.3 275.62,-284.3 272.52,-281.2 272.52,-278.1 272.52,-278.1 272.52,-271.9 272.52,-271.9 272.52,-268.8 275.62,-265.7 278.72,-265.7 278.72,-265.7 320.32,-265.7 320.32,-265.7 323.42,-265.7 326.52,-268.8 326.52,-271.9 326.52,-271.9 326.52,-278.1 326.52,-278.1 326.52,-281.2 323.42,-284.3 320.32,-284.3"/>
<text text-anchor="middle" x="299.52" y="-272.3" font-family="Helvetica,sans-Serif" font-size="9.00">login.js</text>
</a>
</g>
</g>
<!-- api/business&#45;logic/login.js&#45;&gt;api/data&#45;access/mongodbAccess.js -->
<g id="edge2" class="edge">
<title>api/business&#45;logic/login.js&#45;&gt;api/data&#45;access/mongodbAccess.js</title>
<path fill="none" stroke="#000000" stroke-width="2" stroke-opacity="0.200000" d="M326.77,-265.88C330.15,-263.96 333.35,-261.68 336.02,-259 348.36,-246.59 341.22,-236.79 352.02,-223 360.74,-211.85 373.14,-202.02 383.72,-194.78"/>
<polygon fill="#000000" fill-opacity="0.200000" stroke="#000000" stroke-width="2" stroke-opacity="0.200000" points="384.91,-196.5 388.75,-191.43 382.59,-193.01 384.91,-196.5"/>
</g>
<!-- api/utils/createToken.js -->
<g id="node4" class="node">
<title>api/utils/createToken.js</title>
<g id="a_node4"><a xlink:href="api/utils/createToken.js" xlink:title="createToken.js">
<path fill="#ffffcc" stroke="black" d="M437.09,-283.3C437.09,-283.3 374.46,-283.3 374.46,-283.3 371.36,-283.3 368.26,-280.2 368.26,-277.1 368.26,-277.1 368.26,-270.9 368.26,-270.9 368.26,-267.8 371.36,-264.7 374.46,-264.7 374.46,-264.7 437.09,-264.7 437.09,-264.7 440.19,-264.7 443.29,-267.8 443.29,-270.9 443.29,-270.9 443.29,-277.1 443.29,-277.1 443.29,-280.2 440.19,-283.3 437.09,-283.3"/>
<text text-anchor="middle" x="405.78" y="-271.3" font-family="Helvetica,sans-Serif" font-size="9.00">createToken.js</text>
</a>
</g>
</g>
<!-- api/business&#45;logic/login.js&#45;&gt;api/utils/createToken.js -->
<g id="edge3" class="edge">
<title>api/business&#45;logic/login.js&#45;&gt;api/utils/createToken.js</title>
<path fill="none" stroke="#000000" stroke-width="2" stroke-opacity="0.200000" d="M326.56,-274.75C337.24,-274.65 349.89,-274.53 361.87,-274.41"/>
<polygon fill="#000000" fill-opacity="0.200000" stroke="#000000" stroke-width="2" stroke-opacity="0.200000" points="362.08,-276.51 368.06,-274.35 362.04,-272.31 362.08,-276.51"/>
</g>
<!-- api/utils/hashPassword.js -->
<g id="node5" class="node">
<title>api/utils/hashPassword.js</title>
<g id="a_node5"><a xlink:href="api/utils/hashPassword.js" xlink:title="hashPassword.js">
<path fill="#ffffcc" stroke="black" d="M441.59,-252.3C441.59,-252.3 369.96,-252.3 369.96,-252.3 366.86,-252.3 363.76,-249.2 363.76,-246.1 363.76,-246.1 363.76,-239.9 363.76,-239.9 363.76,-236.8 366.86,-233.7 369.96,-233.7 369.96,-233.7 441.59,-233.7 441.59,-233.7 444.69,-233.7 447.79,-236.8 447.79,-239.9 447.79,-239.9 447.79,-246.1 447.79,-246.1 447.79,-249.2 444.69,-252.3 441.59,-252.3"/>
<text text-anchor="middle" x="405.78" y="-240.3" font-family="Helvetica,sans-Serif" font-size="9.00">hashPassword.js</text>
</a>
</g>
</g>
<!-- api/business&#45;logic/login.js&#45;&gt;api/utils/hashPassword.js -->
<g id="edge4" class="edge">
<title>api/business&#45;logic/login.js&#45;&gt;api/utils/hashPassword.js</title>
<path fill="none" stroke="#000000" stroke-width="2" stroke-opacity="0.200000" d="M326.71,-266.83C334.81,-264.3 343.78,-261.53 352.02,-259 357.19,-257.41 362.65,-255.74 368.02,-254.11"/>
<polygon fill="#000000" fill-opacity="0.200000" stroke="#000000" stroke-width="2" stroke-opacity="0.200000" points="368.67,-256.11 373.8,-252.36 367.45,-252.09 368.67,-256.11"/>
</g>
<!-- api/config/tokens.js -->
<g id="node14" class="node">
<title>api/config/tokens.js</title>
<g id="a_node14"><a xlink:href="api/config/tokens.js" xlink:title="tokens.js">
<path fill="#ffffcc" stroke="black" d="M534.59,-283.3C534.59,-283.3 492.99,-283.3 492.99,-283.3 489.89,-283.3 486.79,-280.2 486.79,-277.1 486.79,-277.1 486.79,-270.9 486.79,-270.9 486.79,-267.8 489.89,-264.7 492.99,-264.7 492.99,-264.7 534.59,-264.7 534.59,-264.7 537.69,-264.7 540.79,-267.8 540.79,-270.9 540.79,-270.9 540.79,-277.1 540.79,-277.1 540.79,-280.2 537.69,-283.3 534.59,-283.3"/>
<text text-anchor="middle" x="513.79" y="-271.3" font-family="Helvetica,sans-Serif" font-size="9.00">tokens.js</text>
</a>
</g>
</g>
<!-- api/utils/createToken.js&#45;&gt;api/config/tokens.js -->
<g id="edge33" class="edge">
<title>api/utils/createToken.js&#45;&gt;api/config/tokens.js</title>
<path fill="none" stroke="#000000" stroke-width="2" stroke-opacity="0.200000" d="M443.56,-274C455.57,-274 468.81,-274 480.46,-274"/>
<polygon fill="#000000" fill-opacity="0.200000" stroke="#000000" stroke-width="2" stroke-opacity="0.200000" points="480.76,-276.1 486.76,-274 480.76,-271.9 480.76,-276.1"/>
</g>
<!-- node_modules/jsonwebtoken -->
<g id="node28" class="node">
<title>node_modules/jsonwebtoken</title>
<g id="a_node28"><a xlink:href="node_modules/jsonwebtoken" xlink:title="jsonwebtoken">
<polygon fill="#c40b0a" fill-opacity="0.101961" stroke="black" points="549.31,-96.3 480.34,-96.3 478.27,-94.23 478.27,-77.7 547.24,-77.7 549.31,-79.77 549.31,-96.3"/>
<polyline fill="none" stroke="black" points="547.24,-94.23 478.27,-94.23 "/>
<polyline fill="none" stroke="black" points="547.24,-94.23 547.24,-77.7 "/>
<polyline fill="none" stroke="black" points="547.24,-94.23 549.31,-96.3 "/>
<text text-anchor="middle" x="513.79" y="-84.3" font-family="Helvetica,sans-Serif" font-size="9.00" fill="#c40b0a">jsonwebtoken</text>
</a>
</g>
</g>
<!-- api/utils/createToken.js&#45;&gt;node_modules/jsonwebtoken -->
<g id="edge34" class="edge">
<title>api/utils/createToken.js&#45;&gt;node_modules/jsonwebtoken</title>
<path fill="none" stroke="#000000" stroke-opacity="0.200000" d="M443.28,-269.26C449.56,-266.84 455.38,-263.26 459.53,-258 477.88,-234.76 454.22,-151.45 467.53,-125 472.58,-114.98 481.56,-106.59 490.21,-100.26"/>
<polygon fill="#000000" fill-opacity="0.200000" stroke="#000000" stroke-opacity="0.200000" points="491.77,-101.74 495.51,-96.59 489.38,-98.28 491.77,-101.74"/>
</g>
<!-- crypto -->
<g id="node29" class="node">
<title>crypto</title>
<path fill="#ffffcc" stroke="grey" d="M534.59,-149.3C534.59,-149.3 492.99,-149.3 492.99,-149.3 489.89,-149.3 486.79,-146.2 486.79,-143.1 486.79,-143.1 486.79,-136.9 486.79,-136.9 486.79,-133.8 489.89,-130.7 492.99,-130.7 492.99,-130.7 534.59,-130.7 534.59,-130.7 537.69,-130.7 540.79,-133.8 540.79,-136.9 540.79,-136.9 540.79,-143.1 540.79,-143.1 540.79,-146.2 537.69,-149.3 534.59,-149.3"/>
<text text-anchor="middle" x="513.79" y="-137.3" font-family="Helvetica,sans-Serif" font-size="9.00" fill="grey">crypto</text>
</g>
<!-- api/utils/hashPassword.js&#45;&gt;crypto -->
<g id="edge35" class="edge">
<title>api/utils/hashPassword.js&#45;&gt;crypto</title>
<path fill="none" stroke="#000000" stroke-dasharray="5,2" stroke-opacity="0.200000" d="M437.8,-233.64C445.42,-230.42 453.19,-226.26 459.53,-221 481.65,-202.67 497.95,-172.77 506.36,-154.88"/>
<polygon fill="#000000" fill-opacity="0.200000" stroke="#000000" stroke-opacity="0.200000" points="508.32,-155.64 508.91,-149.31 504.5,-153.89 508.32,-155.64"/>
</g>
<!-- api/business&#45;logic/register.js -->
<g id="node6" class="node">
<title>api/business&#45;logic/register.js</title>
<g id="a_node6"><a xlink:href="api/business-logic/register.js" xlink:title="register.js">
<path fill="#ffffcc" stroke="black" d="M320.81,-222.3C320.81,-222.3 278.22,-222.3 278.22,-222.3 275.12,-222.3 272.02,-219.2 272.02,-216.1 272.02,-216.1 272.02,-209.9 272.02,-209.9 272.02,-206.8 275.12,-203.7 278.22,-203.7 278.22,-203.7 320.81,-203.7 320.81,-203.7 323.91,-203.7 327.02,-206.8 327.02,-209.9 327.02,-209.9 327.02,-216.1 327.02,-216.1 327.02,-219.2 323.91,-222.3 320.81,-222.3"/>
<text text-anchor="middle" x="299.52" y="-210.3" font-family="Helvetica,sans-Serif" font-size="9.00">register.js</text>
</a>
</g>
</g>
<!-- api/business&#45;logic/register.js&#45;&gt;api/data&#45;access/mongodbAccess.js -->
<g id="edge5" class="edge">
<title>api/business&#45;logic/register.js&#45;&gt;api/data&#45;access/mongodbAccess.js</title>
<path fill="none" stroke="#000000" stroke-width="2" stroke-opacity="0.200000" d="M327.1,-205.1C339.34,-201.46 354.08,-197.07 367.41,-193.11"/>
<polygon fill="#000000" fill-opacity="0.200000" stroke="#000000" stroke-width="2" stroke-opacity="0.200000" points="368.27,-195.04 373.43,-191.32 367.08,-191.02 368.27,-195.04"/>
</g>
<!-- api/business&#45;logic/register.js&#45;&gt;api/utils/hashPassword.js -->
<g id="edge6" class="edge">
<title>api/business&#45;logic/register.js&#45;&gt;api/utils/hashPassword.js</title>
<path fill="none" stroke="#000000" stroke-width="2" stroke-opacity="0.200000" d="M327.1,-220.65C339.02,-224.08 353.32,-228.19 366.38,-231.95"/>
<polygon fill="#000000" fill-opacity="0.200000" stroke="#000000" stroke-width="2" stroke-opacity="0.200000" points="365.94,-234.01 372.29,-233.65 367.1,-229.97 365.94,-234.01"/>
</g>
<!-- api/business&#45;logic/users.js -->
<g id="node7" class="node">
<title>api/business&#45;logic/users.js</title>
<g id="a_node7"><a xlink:href="api/business-logic/users.js" xlink:title="users.js">
<path fill="#ffffcc" stroke="black" d="M320.32,-191.3C320.32,-191.3 278.72,-191.3 278.72,-191.3 275.62,-191.3 272.52,-188.2 272.52,-185.1 272.52,-185.1 272.52,-178.9 272.52,-178.9 272.52,-175.8 275.62,-172.7 278.72,-172.7 278.72,-172.7 320.32,-172.7 320.32,-172.7 323.42,-172.7 326.52,-175.8 326.52,-178.9 326.52,-178.9 326.52,-185.1 326.52,-185.1 326.52,-188.2 323.42,-191.3 320.32,-191.3"/>
<text text-anchor="middle" x="299.52" y="-179.3" font-family="Helvetica,sans-Serif" font-size="9.00">users.js</text>
</a>
</g>
</g>
<!-- api/business&#45;logic/users.js&#45;&gt;api/data&#45;access/mongodbAccess.js -->
<g id="edge7" class="edge">
<title>api/business&#45;logic/users.js&#45;&gt;api/data&#45;access/mongodbAccess.js</title>
<path fill="none" stroke="#000000" stroke-width="2" stroke-opacity="0.200000" d="M326.56,-182C334.87,-182 344.37,-182 353.83,-182"/>
<polygon fill="#000000" fill-opacity="0.200000" stroke="#000000" stroke-width="2" stroke-opacity="0.200000" points="354.02,-184.1 360.02,-182 354.02,-179.9 354.02,-184.1"/>
</g>
<!-- api/business&#45;logic/users.js&#45;&gt;node_modules/mongodb -->
<g id="edge8" class="edge">
<title>api/business&#45;logic/users.js&#45;&gt;node_modules/mongodb</title>
<path fill="none" stroke="#000000" stroke-opacity="0.200000" d="M322.88,-172.67C331.85,-169.09 342.34,-165.13 352.02,-162 399,-146.81 426.89,-171.05 459.53,-134 477.9,-113.15 450.07,-93.61 467.53,-72 470.92,-67.81 475.49,-64.71 480.42,-62.43"/>
<polygon fill="#000000" fill-opacity="0.200000" stroke="#000000" stroke-opacity="0.200000" points="481.52,-64.25 486.33,-60.1 479.98,-60.34 481.52,-64.25"/>
</g>
<!-- api/config/default.js -->
<g id="node9" class="node">
<title>api/config/default.js</title>
<g id="a_node9"><a xlink:href="api/config/default.js" xlink:title="default.js">
<path fill="#ffffcc" stroke="black" d="M613.1,-345.3C613.1,-345.3 571.5,-345.3 571.5,-345.3 568.4,-345.3 565.3,-342.2 565.3,-339.1 565.3,-339.1 565.3,-332.9 565.3,-332.9 565.3,-329.8 568.4,-326.7 571.5,-326.7 571.5,-326.7 613.1,-326.7 613.1,-326.7 616.2,-326.7 619.3,-329.8 619.3,-332.9 619.3,-332.9 619.3,-339.1 619.3,-339.1 619.3,-342.2 616.2,-345.3 613.1,-345.3"/>
<text text-anchor="middle" x="592.3" y="-333.3" font-family="Helvetica,sans-Serif" font-size="9.00">default.js</text>
</a>
</g>
</g>
<!-- path -->
<g id="node10" class="node">
<title>path</title>
<path fill="#ffffcc" stroke="grey" d="M691.1,-345.3C691.1,-345.3 649.5,-345.3 649.5,-345.3 646.4,-345.3 643.3,-342.2 643.3,-339.1 643.3,-339.1 643.3,-332.9 643.3,-332.9 643.3,-329.8 646.4,-326.7 649.5,-326.7 649.5,-326.7 691.1,-326.7 691.1,-326.7 694.2,-326.7 697.3,-329.8 697.3,-332.9 697.3,-332.9 697.3,-339.1 697.3,-339.1 697.3,-342.2 694.2,-345.3 691.1,-345.3"/>
<text text-anchor="middle" x="670.3" y="-333.3" font-family="Helvetica,sans-Serif" font-size="9.00" fill="grey">path</text>
</g>
<!-- api/config/default.js&#45;&gt;path -->
<g id="edge9" class="edge">
<title>api/config/default.js&#45;&gt;path</title>
<path fill="none" stroke="#000000" stroke-dasharray="5,2" stroke-opacity="0.200000" d="M619.45,-336C625.07,-336 631.06,-336 636.88,-336"/>
<polygon fill="#000000" fill-opacity="0.200000" stroke="#000000" stroke-opacity="0.200000" points="637.1,-338.1 643.1,-336 637.1,-333.9 637.1,-338.1"/>
</g>
<!-- api/config/development.js -->
<g id="node11" class="node">
<title>api/config/development.js</title>
<g id="a_node11"><a xlink:href="api/config/development.js" xlink:title="development.js">
<path fill="#ccffcc" stroke="black" d="M545.61,-376.3C545.61,-376.3 481.98,-376.3 481.98,-376.3 478.88,-376.3 475.78,-373.2 475.78,-370.1 475.78,-370.1 475.78,-363.9 475.78,-363.9 475.78,-360.8 478.88,-357.7 481.98,-357.7 481.98,-357.7 545.61,-357.7 545.61,-357.7 548.71,-357.7 551.81,-360.8 551.81,-363.9 551.81,-363.9 551.81,-370.1 551.81,-370.1 551.81,-373.2 548.71,-376.3 545.61,-376.3"/>
<text text-anchor="middle" x="513.79" y="-364.3" font-family="Helvetica,sans-Serif" font-size="9.00">development.js</text>
</a>
</g>
</g>
<!-- api/config/index.js -->
<g id="node12" class="node">
<title>api/config/index.js</title>
<g id="a_node12"><a xlink:href="api/config/index.js" xlink:title="index.js">
<path fill="#ffffcc" stroke="black" d="M534.59,-345.3C534.59,-345.3 492.99,-345.3 492.99,-345.3 489.89,-345.3 486.79,-342.2 486.79,-339.1 486.79,-339.1 486.79,-332.9 486.79,-332.9 486.79,-329.8 489.89,-326.7 492.99,-326.7 492.99,-326.7 534.59,-326.7 534.59,-326.7 537.69,-326.7 540.79,-329.8 540.79,-332.9 540.79,-332.9 540.79,-339.1 540.79,-339.1 540.79,-342.2 537.69,-345.3 534.59,-345.3"/>
<text text-anchor="middle" x="513.79" y="-333.3" font-family="Helvetica,sans-Serif" font-size="9.00">index.js</text>
</a>
</g>
</g>
<!-- api/config/index.js&#45;&gt;api/config/default.js -->
<g id="edge10" class="edge">
<title>api/config/index.js&#45;&gt;api/config/default.js</title>
<path fill="none" stroke="#000000" stroke-width="2" stroke-opacity="0.200000" d="M541.12,-336C546.83,-336 552.94,-336 558.86,-336"/>
<polygon fill="#000000" fill-opacity="0.200000" stroke="#000000" stroke-width="2" stroke-opacity="0.200000" points="559.18,-338.1 565.18,-336 559.18,-333.9 559.18,-338.1"/>
</g>
<!-- api/config/production.js -->
<g id="node13" class="node">
<title>api/config/production.js</title>
<g id="a_node13"><a xlink:href="api/config/production.js" xlink:title="production.js">
<path fill="#ccffcc" stroke="black" d="M541.1,-314.3C541.1,-314.3 486.48,-314.3 486.48,-314.3 483.38,-314.3 480.28,-311.2 480.28,-308.1 480.28,-308.1 480.28,-301.9 480.28,-301.9 480.28,-298.8 483.38,-295.7 486.48,-295.7 486.48,-295.7 541.1,-295.7 541.1,-295.7 544.2,-295.7 547.3,-298.8 547.3,-301.9 547.3,-301.9 547.3,-308.1 547.3,-308.1 547.3,-311.2 544.2,-314.3 541.1,-314.3"/>
<text text-anchor="middle" x="513.79" y="-302.3" font-family="Helvetica,sans-Serif" font-size="9.00">production.js</text>
</a>
</g>
</g>
<!-- api/controllers/books.js -->
<g id="node15" class="node">
<title>api/controllers/books.js</title>
<g id="a_node15"><a xlink:href="api/controllers/books.js" xlink:title="books.js">
<path fill="#ffffcc" stroke="black" d="M222.81,-222.3C222.81,-222.3 181.21,-222.3 181.21,-222.3 178.11,-222.3 175.01,-219.2 175.01,-216.1 175.01,-216.1 175.01,-209.9 175.01,-209.9 175.01,-206.8 178.11,-203.7 181.21,-203.7 181.21,-203.7 222.81,-203.7 222.81,-203.7 225.91,-203.7 229.01,-206.8 229.01,-209.9 229.01,-209.9 229.01,-216.1 229.01,-216.1 229.01,-219.2 225.91,-222.3 222.81,-222.3"/>
<text text-anchor="middle" x="202.01" y="-210.3" font-family="Helvetica,sans-Serif" font-size="9.00">books.js</text>
</a>
</g>
</g>
<!-- api/controllers/books.js&#45;&gt;api/business&#45;logic/books.js -->
<g id="edge11" class="edge">
<title>api/controllers/books.js&#45;&gt;api/business&#45;logic/books.js</title>
<path fill="none" stroke="#000000" stroke-width="2" stroke-opacity="0.200000" d="M229.11,-221.47C240.69,-225.23 254.42,-229.69 266.61,-233.64"/>
<polygon fill="#000000" fill-opacity="0.200000" stroke="#000000" stroke-width="2" stroke-opacity="0.200000" points="266.1,-235.68 272.45,-235.54 267.39,-231.69 266.1,-235.68"/>
</g>
<!-- api/controllers/login.js -->
<g id="node16" class="node">
<title>api/controllers/login.js</title>
<g id="a_node16"><a xlink:href="api/controllers/login.js" xlink:title="login.js">
<path fill="#ffffcc" stroke="black" d="M222.81,-253.3C222.81,-253.3 181.21,-253.3 181.21,-253.3 178.11,-253.3 175.01,-250.2 175.01,-247.1 175.01,-247.1 175.01,-240.9 175.01,-240.9 175.01,-237.8 178.11,-234.7 181.21,-234.7 181.21,-234.7 222.81,-234.7 222.81,-234.7 225.91,-234.7 229.01,-237.8 229.01,-240.9 229.01,-240.9 229.01,-247.1 229.01,-247.1 229.01,-250.2 225.91,-253.3 222.81,-253.3"/>
<text text-anchor="middle" x="202.01" y="-241.3" font-family="Helvetica,sans-Serif" font-size="9.00">login.js</text>
</a>
</g>
</g>
<!-- api/controllers/login.js&#45;&gt;api/business&#45;logic/login.js -->
<g id="edge12" class="edge">
<title>api/controllers/login.js&#45;&gt;api/business&#45;logic/login.js</title>
<path fill="none" stroke="#000000" stroke-width="2" stroke-opacity="0.200000" d="M229.11,-252.47C240.69,-256.23 254.42,-260.69 266.61,-264.64"/>
<polygon fill="#000000" fill-opacity="0.200000" stroke="#000000" stroke-width="2" stroke-opacity="0.200000" points="266.1,-266.68 272.45,-266.54 267.39,-262.69 266.1,-266.68"/>
</g>
<!-- api/controllers/register.js -->
<g id="node17" class="node">
<title>api/controllers/register.js</title>
<g id="a_node17"><a xlink:href="api/controllers/register.js" xlink:title="register.js">
<path fill="#ffffcc" stroke="black" d="M223.31,-191.3C223.31,-191.3 180.71,-191.3 180.71,-191.3 177.61,-191.3 174.51,-188.2 174.51,-185.1 174.51,-185.1 174.51,-178.9 174.51,-178.9 174.51,-175.8 177.61,-172.7 180.71,-172.7 180.71,-172.7 223.31,-172.7 223.31,-172.7 226.41,-172.7 229.51,-175.8 229.51,-178.9 229.51,-178.9 229.51,-185.1 229.51,-185.1 229.51,-188.2 226.41,-191.3 223.31,-191.3"/>
<text text-anchor="middle" x="202.01" y="-179.3" font-family="Helvetica,sans-Serif" font-size="9.00">register.js</text>
</a>
</g>
</g>
<!-- api/controllers/register.js&#45;&gt;api/business&#45;logic/register.js -->
<g id="edge13" class="edge">
<title>api/controllers/register.js&#45;&gt;api/business&#45;logic/register.js</title>
<path fill="none" stroke="#000000" stroke-width="2" stroke-opacity="0.200000" d="M229.61,-190.64C240.8,-194.27 253.93,-198.53 265.7,-202.35"/>
<polygon fill="#000000" fill-opacity="0.200000" stroke="#000000" stroke-width="2" stroke-opacity="0.200000" points="265.37,-204.45 271.72,-204.3 266.67,-200.45 265.37,-204.45"/>
</g>
<!-- api/controllers/users.js -->
<g id="node18" class="node">
<title>api/controllers/users.js</title>
<g id="a_node18"><a xlink:href="api/controllers/users.js" xlink:title="users.js">
<path fill="#ffffcc" stroke="black" d="M222.81,-284.3C222.81,-284.3 181.21,-284.3 181.21,-284.3 178.11,-284.3 175.01,-281.2 175.01,-278.1 175.01,-278.1 175.01,-271.9 175.01,-271.9 175.01,-268.8 178.11,-265.7 181.21,-265.7 181.21,-265.7 222.81,-265.7 222.81,-265.7 225.91,-265.7 229.01,-268.8 229.01,-271.9 229.01,-271.9 229.01,-278.1 229.01,-278.1 229.01,-281.2 225.91,-284.3 222.81,-284.3"/>
<text text-anchor="middle" x="202.01" y="-272.3" font-family="Helvetica,sans-Serif" font-size="9.00">users.js</text>
</a>
</g>
</g>
<!-- api/controllers/users.js&#45;&gt;api/business&#45;logic/users.js -->
<g id="edge14" class="edge">
<title>api/controllers/users.js&#45;&gt;api/business&#45;logic/users.js</title>
<path fill="none" stroke="#000000" stroke-width="2" stroke-opacity="0.200000" d="M229.22,-270.04C235.79,-267.67 242.31,-264.17 247.02,-259 265.9,-238.29 244.92,-219.4 263.02,-198 264.2,-196.6 265.54,-195.31 266.98,-194.13"/>
<polygon fill="#000000" fill-opacity="0.200000" stroke="#000000" stroke-width="2" stroke-opacity="0.200000" points="268.45,-195.67 272.2,-190.54 266.07,-192.21 268.45,-195.67"/>
</g>
<!-- api/index.js -->
<g id="node19" class="node">
<title>api/index.js</title>
<g id="a_node19"><a xlink:href="api/index.js" xlink:title="index.js">
<path fill="#ffffcc" stroke="black" d="M63.8,-237.3C63.8,-237.3 22.2,-237.3 22.2,-237.3 19.1,-237.3 16,-234.2 16,-231.1 16,-231.1 16,-224.9 16,-224.9 16,-221.8 19.1,-218.7 22.2,-218.7 22.2,-218.7 63.8,-218.7 63.8,-218.7 66.9,-218.7 70,-221.8 70,-224.9 70,-224.9 70,-231.1 70,-231.1 70,-234.2 66.9,-237.3 63.8,-237.3"/>
<text text-anchor="middle" x="43" y="-225.3" font-family="Helvetica,sans-Serif" font-size="9.00">index.js</text>
</a>
</g>
</g>
<!-- api/middleware/authenticate.js -->
<g id="node20" class="node">
<title>api/middleware/authenticate.js</title>
<g id="a_node20"><a xlink:href="api/middleware/authenticate.js" xlink:title="authenticate.js">
<path fill="#ffffcc" stroke="black" d="M232.83,-376.3C232.83,-376.3 171.19,-376.3 171.19,-376.3 168.09,-376.3 164.99,-373.2 164.99,-370.1 164.99,-370.1 164.99,-363.9 164.99,-363.9 164.99,-360.8 168.09,-357.7 171.19,-357.7 171.19,-357.7 232.83,-357.7 232.83,-357.7 235.93,-357.7 239.03,-360.8 239.03,-363.9 239.03,-363.9 239.03,-370.1 239.03,-370.1 239.03,-373.2 235.93,-376.3 232.83,-376.3"/>
<text text-anchor="middle" x="202.01" y="-364.3" font-family="Helvetica,sans-Serif" font-size="9.00">authenticate.js</text>
</a>
</g>
</g>
<!-- api/index.js&#45;&gt;api/middleware/authenticate.js -->
<g id="edge16" class="edge">
<title>api/index.js&#45;&gt;api/middleware/authenticate.js</title>
<path fill="none" stroke="#000000" stroke-width="2" stroke-opacity="0.200000" d="M45.4,-237.5C48.41,-254.78 56.99,-291.66 78,-314 99.55,-336.92 132.67,-350.41 159.11,-358.05"/>
<polygon fill="#000000" fill-opacity="0.200000" stroke="#000000" stroke-width="2" stroke-opacity="0.200000" points="158.65,-360.1 164.99,-359.68 159.77,-356.05 158.65,-360.1"/>
</g>
<!-- api/routes/books.js -->
<g id="node21" class="node">
<title>api/routes/books.js</title>
<g id="a_node21"><a xlink:href="api/routes/books.js" xlink:title="books.js">
<path fill="#ffffcc" stroke="black" d="M134.3,-222.3C134.3,-222.3 92.7,-222.3 92.7,-222.3 89.6,-222.3 86.5,-219.2 86.5,-216.1 86.5,-216.1 86.5,-209.9 86.5,-209.9 86.5,-206.8 89.6,-203.7 92.7,-203.7 92.7,-203.7 134.3,-203.7 134.3,-203.7 137.4,-203.7 140.5,-206.8 140.5,-209.9 140.5,-209.9 140.5,-216.1 140.5,-216.1 140.5,-219.2 137.4,-222.3 134.3,-222.3"/>
<text text-anchor="middle" x="113.5" y="-210.3" font-family="Helvetica,sans-Serif" font-size="9.00">books.js</text>
</a>
</g>
</g>
<!-- api/index.js&#45;&gt;api/routes/books.js -->
<g id="edge17" class="edge">
<title>api/index.js&#45;&gt;api/routes/books.js</title>
<path fill="none" stroke="#000000" stroke-width="2" stroke-opacity="0.200000" d="M70.29,-222.24C73.59,-221.52 76.99,-220.77 80.37,-220.04"/>
<polygon fill="#000000" fill-opacity="0.200000" stroke="#000000" stroke-width="2" stroke-opacity="0.200000" points="80.98,-222.05 86.39,-218.72 80.08,-217.95 80.98,-222.05"/>
</g>
<!-- api/routes/login.js -->
<g id="node22" class="node">
<title>api/routes/login.js</title>
<g id="a_node22"><a xlink:href="api/routes/login.js" xlink:title="login.js">
<path fill="#ffffcc" stroke="black" d="M134.3,-253.3C134.3,-253.3 92.7,-253.3 92.7,-253.3 89.6,-253.3 86.5,-250.2 86.5,-247.1 86.5,-247.1 86.5,-240.9 86.5,-240.9 86.5,-237.8 89.6,-234.7 92.7,-234.7 92.7,-234.7 134.3,-234.7 134.3,-234.7 137.4,-234.7 140.5,-237.8 140.5,-240.9 140.5,-240.9 140.5,-247.1 140.5,-247.1 140.5,-250.2 137.4,-253.3 134.3,-253.3"/>
<text text-anchor="middle" x="113.5" y="-241.3" font-family="Helvetica,sans-Serif" font-size="9.00">login.js</text>
</a>
</g>
</g>
<!-- api/index.js&#45;&gt;api/routes/login.js -->
<g id="edge18" class="edge">
<title>api/index.js&#45;&gt;api/routes/login.js</title>
<path fill="none" stroke="#000000" stroke-width="2" stroke-opacity="0.200000" d="M70.29,-234.14C73.59,-234.91 76.99,-235.71 80.37,-236.5"/>
<polygon fill="#000000" fill-opacity="0.200000" stroke="#000000" stroke-width="2" stroke-opacity="0.200000" points="80.07,-238.58 86.39,-237.9 81.03,-234.49 80.07,-238.58"/>
</g>
<!-- api/routes/register.js -->
<g id="node23" class="node">
<title>api/routes/register.js</title>
<g id="a_node23"><a xlink:href="api/routes/register.js" xlink:title="register.js">
<path fill="#ffffcc" stroke="black" d="M134.8,-191.3C134.8,-191.3 92.2,-191.3 92.2,-191.3 89.1,-191.3 86,-188.2 86,-185.1 86,-185.1 86,-178.9 86,-178.9 86,-175.8 89.1,-172.7 92.2,-172.7 92.2,-172.7 134.8,-172.7 134.8,-172.7 137.9,-172.7 141,-175.8 141,-178.9 141,-178.9 141,-185.1 141,-185.1 141,-188.2 137.9,-191.3 134.8,-191.3"/>
<text text-anchor="middle" x="113.5" y="-179.3" font-family="Helvetica,sans-Serif" font-size="9.00">register.js</text>
</a>
</g>
</g>
<!-- api/index.js&#45;&gt;api/routes/register.js -->
<g id="edge19" class="edge">
<title>api/index.js&#45;&gt;api/routes/register.js</title>
<path fill="none" stroke="#000000" stroke-width="2" stroke-opacity="0.200000" d="M53.21,-218.54C59.74,-212.19 68.9,-203.94 78,-198 79.94,-196.73 81.99,-195.51 84.09,-194.35"/>
<polygon fill="#000000" fill-opacity="0.200000" stroke="#000000" stroke-width="2" stroke-opacity="0.200000" points="85.37,-196.05 89.73,-191.42 83.43,-192.33 85.37,-196.05"/>
</g>
<!-- api/routes/users.js -->
<g id="node24" class="node">
<title>api/routes/users.js</title>
<g id="a_node24"><a xlink:href="api/routes/users.js" xlink:title="users.js">
<path fill="#ffffcc" stroke="black" d="M134.3,-284.3C134.3,-284.3 92.7,-284.3 92.7,-284.3 89.6,-284.3 86.5,-281.2 86.5,-278.1 86.5,-278.1 86.5,-271.9 86.5,-271.9 86.5,-268.8 89.6,-265.7 92.7,-265.7 92.7,-265.7 134.3,-265.7 134.3,-265.7 137.4,-265.7 140.5,-268.8 140.5,-271.9 140.5,-271.9 140.5,-278.1 140.5,-278.1 140.5,-281.2 137.4,-284.3 134.3,-284.3"/>
<text text-anchor="middle" x="113.5" y="-272.3" font-family="Helvetica,sans-Serif" font-size="9.00">users.js</text>
</a>
</g>
</g>
<!-- api/index.js&#45;&gt;api/routes/users.js -->
<g id="edge20" class="edge">
<title>api/index.js&#45;&gt;api/routes/users.js</title>
<path fill="none" stroke="#000000" stroke-width="2" stroke-opacity="0.200000" d="M52.88,-237.51C59.39,-244.12 68.69,-252.81 78,-259 79.93,-260.28 81.97,-261.51 84.07,-262.68"/>
<polygon fill="#000000" fill-opacity="0.200000" stroke="#000000" stroke-width="2" stroke-opacity="0.200000" points="83.4,-264.7 89.69,-265.63 85.35,-260.98 83.4,-264.7"/>
</g>
<!-- node_modules/express -->
<g id="node25" class="node">
<title>node_modules/express</title>
<g id="a_node25"><a xlink:href="node_modules/express" xlink:title="express">
<polygon fill="#c40b0a" fill-opacity="0.101961" stroke="black" points="540.79,-34.3 488.86,-34.3 486.79,-32.23 486.79,-15.7 538.72,-15.7 540.79,-17.77 540.79,-34.3"/>
<polyline fill="none" stroke="black" points="538.72,-32.23 486.79,-32.23 "/>
<polyline fill="none" stroke="black" points="538.72,-32.23 538.72,-15.7 "/>
<polyline fill="none" stroke="black" points="538.72,-32.23 540.79,-34.3 "/>
<text text-anchor="middle" x="513.79" y="-22.3" font-family="Helvetica,sans-Serif" font-size="9.00" fill="#c40b0a">express</text>
</a>
</g>
</g>
<!-- api/index.js&#45;&gt;node_modules/express -->
<g id="edge21" class="edge">
<title>api/index.js&#45;&gt;node_modules/express</title>
<path fill="none" stroke="#000000" stroke-opacity="0.200000" d="M46.12,-218.52C55.86,-177.83 100.11,-20 201.01,-20 201.01,-20 201.01,-20 300.52,-20 364.33,-20 438.91,-22.29 480.51,-23.77"/>
<polygon fill="#000000" fill-opacity="0.200000" stroke="#000000" stroke-opacity="0.200000" points="480.58,-25.87 486.65,-23.99 480.73,-21.67 480.58,-25.87"/>
</g>
<!-- api/utils/validateToken.js -->
<g id="node26" class="node">
<title>api/utils/validateToken.js</title>
<g id="a_node26"><a xlink:href="api/utils/validateToken.js" xlink:title="validateToken.js">
<path fill="#ffffcc" stroke="black" d="M440.09,-314.3C440.09,-314.3 371.46,-314.3 371.46,-314.3 368.36,-314.3 365.26,-311.2 365.26,-308.1 365.26,-308.1 365.26,-301.9 365.26,-301.9 365.26,-298.8 368.36,-295.7 371.46,-295.7 371.46,-295.7 440.09,-295.7 440.09,-295.7 443.19,-295.7 446.29,-298.8 446.29,-301.9 446.29,-301.9 446.29,-308.1 446.29,-308.1 446.29,-311.2 443.19,-314.3 440.09,-314.3"/>
<text text-anchor="middle" x="405.78" y="-302.3" font-family="Helvetica,sans-Serif" font-size="9.00">validateToken.js</text>
</a>
</g>
</g>
<!-- api/middleware/authenticate.js&#45;&gt;api/utils/validateToken.js -->
<g id="edge22" class="edge">
<title>api/middleware/authenticate.js&#45;&gt;api/utils/validateToken.js</title>
<path fill="none" stroke="#000000" stroke-width="2" stroke-opacity="0.200000" d="M233.65,-357.58C269.86,-346.46 330.03,-327.97 368.52,-316.14"/>
<polygon fill="#000000" fill-opacity="0.200000" stroke="#000000" stroke-width="2" stroke-opacity="0.200000" points="369.39,-318.07 374.5,-314.3 368.15,-314.06 369.39,-318.07"/>
</g>
<!-- api/routes/books.js&#45;&gt;api/controllers/books.js -->
<g id="edge24" class="edge">
<title>api/routes/books.js&#45;&gt;api/controllers/books.js</title>
<path fill="none" stroke="#000000" stroke-width="2" stroke-opacity="0.200000" d="M140.92,-213C149.65,-213 159.45,-213 168.56,-213"/>
<polygon fill="#000000" fill-opacity="0.200000" stroke="#000000" stroke-width="2" stroke-opacity="0.200000" points="168.74,-215.1 174.74,-213 168.74,-210.9 168.74,-215.1"/>
</g>
<!-- api/routes/books.js&#45;&gt;node_modules/express -->
<g id="edge25" class="edge">
<title>api/routes/books.js&#45;&gt;node_modules/express</title>
<path fill="none" stroke="#000000" stroke-opacity="0.200000" d="M140.58,-204.74C143.86,-202.69 146.82,-200.15 149,-197 162.81,-177.02 140.42,-105.75 157,-88 180.18,-63.19 427.12,-55.11 459.53,-45 463.33,-43.82 463.88,-42.55 467.53,-41 471.85,-39.17 476.45,-37.37 481.01,-35.67"/>
<polygon fill="#000000" fill-opacity="0.200000" stroke="#000000" stroke-opacity="0.200000" points="481.81,-37.62 486.73,-33.59 480.38,-33.67 481.81,-37.62"/>
</g>
<!-- api/routes/login.js&#45;&gt;api/controllers/login.js -->
<g id="edge26" class="edge">
<title>api/routes/login.js&#45;&gt;api/controllers/login.js</title>
<path fill="none" stroke="#000000" stroke-width="2" stroke-opacity="0.200000" d="M140.92,-244C149.65,-244 159.45,-244 168.56,-244"/>
<polygon fill="#000000" fill-opacity="0.200000" stroke="#000000" stroke-width="2" stroke-opacity="0.200000" points="168.74,-246.1 174.74,-244 168.74,-241.9 168.74,-246.1"/>
</g>
<!-- api/routes/login.js&#45;&gt;node_modules/express -->
<g id="edge27" class="edge">
<title>api/routes/login.js&#45;&gt;node_modules/express</title>
<path fill="none" stroke="#000000" stroke-opacity="0.200000" d="M140.59,-235.75C143.87,-233.7 146.83,-231.15 149,-228 163.41,-207.09 140.02,-132.89 157,-114 179.82,-88.6 432.86,-81.32 459.53,-60 466.69,-54.28 460.87,-47.29 467.53,-41 471.28,-37.47 475.86,-34.71 480.64,-32.55"/>
<polygon fill="#000000" fill-opacity="0.200000" stroke="#000000" stroke-opacity="0.200000" points="481.53,-34.46 486.32,-30.29 479.97,-30.56 481.53,-34.46"/>
</g>
<!-- api/routes/register.js&#45;&gt;api/controllers/register.js -->
<g id="edge28" class="edge">
<title>api/routes/register.js&#45;&gt;api/controllers/register.js</title>
<path fill="none" stroke="#000000" stroke-width="2" stroke-opacity="0.200000" d="M141.4,-182C149.94,-182 159.48,-182 168.38,-182"/>
<polygon fill="#000000" fill-opacity="0.200000" stroke="#000000" stroke-width="2" stroke-opacity="0.200000" points="168.42,-184.1 174.42,-182 168.42,-179.9 168.42,-184.1"/>
</g>
<!-- api/routes/register.js&#45;&gt;node_modules/express -->
<g id="edge29" class="edge">
<title>api/routes/register.js&#45;&gt;node_modules/express</title>
<path fill="none" stroke="#000000" stroke-opacity="0.200000" d="M114.66,-172.61C115.62,-149.53 121.57,-89.89 157,-62 160.17,-59.5 393.63,-36.58 480.61,-28.12"/>
<polygon fill="#000000" fill-opacity="0.200000" stroke="#000000" stroke-opacity="0.200000" points="480.84,-30.21 486.61,-27.54 480.44,-26.03 480.84,-30.21"/>
</g>
<!-- api/routes/users.js&#45;&gt;api/controllers/users.js -->
<g id="edge30" class="edge">
<title>api/routes/users.js&#45;&gt;api/controllers/users.js</title>
<path fill="none" stroke="#000000" stroke-width="2" stroke-opacity="0.200000" d="M140.92,-275C149.65,-275 159.45,-275 168.56,-275"/>
<polygon fill="#000000" fill-opacity="0.200000" stroke="#000000" stroke-width="2" stroke-opacity="0.200000" points="168.74,-277.1 174.74,-275 168.74,-272.9 168.74,-277.1"/>
</g>
<!-- api/routes/users.js&#45;&gt;node_modules/express -->
<g id="edge32" class="edge">
<title>api/routes/users.js&#45;&gt;node_modules/express</title>
<path fill="none" stroke="#000000" stroke-opacity="0.200000" d="M140.55,-266.73C143.84,-264.68 146.81,-262.14 149,-259 161.38,-241.26 143.16,-178.62 157,-162 246.13,-54.93 364.14,-181.53 459.53,-80 471.65,-67.1 455.91,-54.34 467.53,-41 471.15,-36.85 475.92,-33.77 481,-31.49"/>
<polygon fill="#000000" fill-opacity="0.200000" stroke="#000000" stroke-opacity="0.200000" points="481.76,-33.45 486.6,-29.32 480.24,-29.54 481.76,-33.45"/>
</g>
<!-- api/middleware/authorize.js -->
<g id="node27" class="node">
<title>api/middleware/authorize.js</title>
<g id="a_node27"><a xlink:href="api/middleware/authorize.js" xlink:title="authorize.js">
<path fill="#ffffcc" stroke="black" d="M226.82,-345.3C226.82,-345.3 177.2,-345.3 177.2,-345.3 174.1,-345.3 171,-342.2 171,-339.1 171,-339.1 171,-332.9 171,-332.9 171,-329.8 174.1,-326.7 177.2,-326.7 177.2,-326.7 226.82,-326.7 226.82,-326.7 229.92,-326.7 233.02,-329.8 233.02,-332.9 233.02,-332.9 233.02,-339.1 233.02,-339.1 233.02,-342.2 229.92,-345.3 226.82,-345.3"/>
<text text-anchor="middle" x="202.01" y="-333.3" font-family="Helvetica,sans-Serif" font-size="9.00">authorize.js</text>
</a>
</g>
</g>
<!-- api/routes/users.js&#45;&gt;api/middleware/authorize.js -->
<g id="edge31" class="edge">
<title>api/routes/users.js&#45;&gt;api/middleware/authorize.js</title>
<path fill="none" stroke="#000000" stroke-width="2" stroke-opacity="0.200000" d="M140.62,-281.8C143.73,-283.45 146.63,-285.48 149,-288 157.28,-296.81 149.18,-304.78 157,-314 160.1,-317.67 163.97,-320.78 168.11,-323.42"/>
<polygon fill="#000000" fill-opacity="0.200000" stroke="#000000" stroke-width="2" stroke-opacity="0.200000" points="167.22,-325.33 173.47,-326.5 169.31,-321.68 167.22,-325.33"/>
</g>
<!-- api/utils/validateToken.js&#45;&gt;api/config/tokens.js -->
<g id="edge36" class="edge">
<title>api/utils/validateToken.js&#45;&gt;api/config/tokens.js</title>
<path fill="none" stroke="#000000" stroke-width="2" stroke-opacity="0.200000" d="M438.87,-295.61C452.08,-291.75 467.36,-287.28 480.58,-283.42"/>
<polygon fill="#000000" fill-opacity="0.200000" stroke="#000000" stroke-width="2" stroke-opacity="0.200000" points="481.33,-285.39 486.5,-281.69 480.15,-281.36 481.33,-285.39"/>
</g>
<!-- api/utils/validateToken.js&#45;&gt;node_modules/jsonwebtoken -->
<g id="edge37" class="edge">
<title>api/utils/validateToken.js&#45;&gt;node_modules/jsonwebtoken</title>
<path fill="none" stroke="#000000" stroke-opacity="0.200000" d="M446.51,-298.95C451.54,-296.59 456.12,-293.38 459.53,-289 470.76,-274.62 459.43,-141.34 467.53,-125 472.52,-114.95 481.5,-106.56 490.15,-100.24"/>
<polygon fill="#000000" fill-opacity="0.200000" stroke="#000000" stroke-opacity="0.200000" points="491.72,-101.71 495.46,-96.57 489.33,-98.25 491.72,-101.71"/>
</g>
<!-- api/middleware/authorize.js&#45;&gt;api/business&#45;logic/books.js -->
<g id="edge23" class="edge">
<title>api/middleware/authorize.js&#45;&gt;api/business&#45;logic/books.js</title>
<path fill="none" stroke="#000000" stroke-width="2" stroke-opacity="0.200000" d="M230.59,-326.53C236.68,-323.35 242.63,-319.24 247.02,-314 263.1,-294.82 246.56,-278.86 263.02,-260 264.23,-258.62 265.58,-257.34 267.03,-256.18"/>
<polygon fill="#000000" fill-opacity="0.200000" stroke="#000000" stroke-width="2" stroke-opacity="0.200000" points="268.5,-257.72 272.29,-252.61 266.14,-254.24 268.5,-257.72"/>
</g>
</g>
</svg>
