<?xml version="1.0" encoding="UTF-8" standalone="no"?>
<!DOCTYPE svg PUBLIC "-//W3C//DTD SVG 1.1//EN"
 "http://www.w3.org/Graphics/SVG/1.1/DTD/svg11.dtd">
<!-- Generated by graphviz version 2.44.0 (20200408.0750)
 -->
<!-- Title: dependency&#45;cruiser output Pages: 1 -->
<svg width="705pt" height="415pt"
 viewBox="0.00 0.00 705.30 415.00" xmlns="http://www.w3.org/2000/svg" xmlns:xlink="http://www.w3.org/1999/xlink">
<g id="graph0" class="graph" transform="scale(1 1) rotate(0) translate(4 411)">
<title>dependency&#45;cruiser output</title>
<polygon fill="white" stroke="transparent" points="-4,4 -4,-411 701.3,-411 701.3,4 -4,4"/>
<g id="clust1" class="cluster">
<title>cluster_api</title>
<path fill="#ffffff" stroke="black" stroke-width="2" d="M20,-157C20,-157 623.3,-157 623.3,-157 629.3,-157 635.3,-163 635.3,-169 635.3,-169 635.3,-387 635.3,-387 635.3,-393 629.3,-399 623.3,-399 623.3,-399 20,-399 20,-399 14,-399 8,-393 8,-387 8,-387 8,-169 8,-169 8,-163 14,-157 20,-157"/>
<text text-anchor="middle" x="321.65" y="-386.9" font-family="Helvetica,sans-Serif" font-weight="bold" font-size="9.00">api</text>
</g>
<g id="clust2" class="cluster">
<title>cluster_api/business&#45;logic</title>
<path fill="#ffffff" stroke="black" stroke-width="2" d="M275.02,-165C275.02,-165 324.02,-165 324.02,-165 330.02,-165 336.02,-171 336.02,-177 336.02,-177 336.02,-299 336.02,-299 336.02,-305 330.02,-311 324.02,-311 324.02,-311 275.02,-311 275.02,-311 269.02,-311 263.02,-305 263.02,-299 263.02,-299 263.02,-177 263.02,-177 263.02,-171 269.02,-165 275.02,-165"/>
<text text-anchor="middle" x="299.52" y="-298.9" font-family="Helvetica,sans-Serif" font-weight="bold" font-size="9.00">business&#45;logic</text>
</g>
<g id="clust3" class="cluster">
<title>cluster_api/config</title>
<path fill="#ffffff" stroke="black" stroke-width="2" d="M479.53,-226C479.53,-226 615.3,-226 615.3,-226 621.3,-226 627.3,-232 627.3,-238 627.3,-238 627.3,-360 627.3,-360 627.3,-366 621.3,-372 615.3,-372 615.3,-372 479.53,-372 479.53,-372 473.53,-372 467.53,-366 467.53,-360 467.53,-360 467.53,-238 467.53,-238 467.53,-232 473.53,-226 479.53,-226"/>
<text text-anchor="middle" x="547.42" y="-359.9" font-family="Helvetica,sans-Serif" font-weight="bold" font-size="9.00">config</text>
</g>
<g id="clust4" class="cluster">
<title>cluster_api/controllers</title>
<path fill="#ffffff" stroke="black" stroke-width="2" d="M188.02,-165C188.02,-165 235.02,-165 235.02,-165 241.02,-165 247.02,-171 247.02,-177 247.02,-177 247.02,-299 247.02,-299 247.02,-305 241.02,-311 235.02,-311 235.02,-311 188.02,-311 188.02,-311 182.02,-311 176.02,-305 176.02,-299 176.02,-299 176.02,-177 176.02,-177 176.02,-171 182.02,-165 188.02,-165"/>
<text text-anchor="middle" x="211.52" y="-298.9" font-family="Helvetica,sans-Serif" font-weight="bold" font-size="9.00">controllers</text>
</g>
<g id="clust5" class="cluster">
<title>cluster_api/data&#45;access</title>
<path fill="#ffffff" stroke="black" stroke-width="2" d="M364.02,-165C364.02,-165 447.53,-165 447.53,-165 453.53,-165 459.53,-171 459.53,-177 459.53,-177 459.53,-206 459.53,-206 459.53,-212 453.53,-218 447.53,-218 447.53,-218 364.02,-218 364.02,-218 358.02,-218 352.02,-212 352.02,-206 352.02,-206 352.02,-177 352.02,-177 352.02,-171 358.02,-165 364.02,-165"/>
<text text-anchor="middle" x="405.78" y="-205.9" font-family="Helvetica,sans-Serif" font-weight="bold" font-size="9.00">data&#45;access</text>
</g>
<g id="clust6" class="cluster">
<title>cluster_api/middleware</title>
<path fill="#ffffff" stroke="black" stroke-width="2" d="M90,-319C90,-319 156.02,-319 156.02,-319 162.02,-319 168.02,-325 168.02,-331 168.02,-331 168.02,-360 168.02,-360 168.02,-366 162.02,-372 156.02,-372 156.02,-372 90,-372 90,-372 84,-372 78,-366 78,-360 78,-360 78,-331 78,-331 78,-325 84,-319 90,-319"/>
<text text-anchor="middle" x="123.01" y="-359.9" font-family="Helvetica,sans-Serif" font-weight="bold" font-size="9.00">middleware</text>
</g>
<g id="clust7" class="cluster">
<title>cluster_api/routes</title>
<path fill="#ffffff" stroke="black" stroke-width="2" d="M99.51,-165C99.51,-165 146.51,-165 146.51,-165 152.51,-165 158.51,-171 158.51,-177 158.51,-177 158.51,-299 158.51,-299 158.51,-305 152.51,-311 146.51,-311 146.51,-311 99.51,-311 99.51,-311 93.51,-311 87.51,-305 87.51,-299 87.51,-299 87.51,-177 87.51,-177 87.51,-171 93.51,-165 99.51,-165"/>
<text text-anchor="middle" x="123.01" y="-298.9" font-family="Helvetica,sans-Serif" font-weight="bold" font-size="9.00">routes</text>
</g>
<g id="clust8" class="cluster">
<title>cluster_api/utils</title>
<path fill="#ffffff" stroke="black" stroke-width="2" d="M367.77,-226C367.77,-226 443.78,-226 443.78,-226 449.78,-226 455.78,-232 455.78,-238 455.78,-238 455.78,-329 455.78,-329 455.78,-335 449.78,-341 443.78,-341 443.78,-341 367.77,-341 367.77,-341 361.77,-341 355.77,-335 355.77,-329 355.77,-329 355.77,-238 355.77,-238 355.77,-232 361.77,-226 367.77,-226"/>
<text text-anchor="middle" x="405.78" y="-328.9" font-family="Helvetica,sans-Serif" font-weight="bold" font-size="9.00">utils</text>
</g>
<g id="clust9" class="cluster">
<title>cluster_node_modules</title>
<path fill="#ffffff" stroke="black" stroke-width="2" d="M482.28,-8C482.28,-8 545.3,-8 545.3,-8 551.3,-8 557.3,-14 557.3,-20 557.3,-20 557.3,-111 557.3,-111 557.3,-117 551.3,-123 545.3,-123 545.3,-123 482.28,-123 482.28,-123 476.28,-123 470.28,-117 470.28,-111 470.28,-111 470.28,-20 470.28,-20 470.28,-14 476.28,-8 482.28,-8"/>
<text text-anchor="middle" x="513.79" y="-110.9" font-family="Helvetica,sans-Serif" font-weight="bold" font-size="9.00">node_modules</text>
</g>
<!-- api/business&#45;logic/books.js -->
<g id="node1" class="node">
<title>api/business&#45;logic/books.js</title>
<g id="a_node1"><a xlink:href="api/business-logic/books.js" xlink:title="books.js">
<path fill="#ffffcc" stroke="black" d="M320.32,-191.3C320.32,-191.3 278.72,-191.3 278.72,-191.3 275.62,-191.3 272.52,-188.2 272.52,-185.1 272.52,-185.1 272.52,-178.9 272.52,-178.9 272.52,-175.8 275.62,-172.7 278.72,-172.7 278.72,-172.7 320.32,-172.7 320.32,-172.7 323.42,-172.7 326.52,-175.8 326.52,-178.9 326.52,-178.9 326.52,-185.1 326.52,-185.1 326.52,-188.2 323.42,-191.3 320.32,-191.3"/>
<text text-anchor="middle" x="299.52" y="-179.3" font-family="Helvetica,sans-Serif" font-size="9.00">books.js</text>
</a>
</g>
</g>
<!-- api/data&#45;access/mongodbAccess.js -->
<g id="node2" class="node">
<title>api/data&#45;access/mongodbAccess.js</title>
<g id="a_node2"><a xlink:href="api/data-access/mongodbAccess.js" xlink:title="mongodbAccess.js">
<path fill="#ffffcc" stroke="black" d="M445.09,-191.3C445.09,-191.3 366.46,-191.3 366.46,-191.3 363.36,-191.3 360.26,-188.2 360.26,-185.1 360.26,-185.1 360.26,-178.9 360.26,-178.9 360.26,-175.8 363.36,-172.7 366.46,-172.7 366.46,-172.7 445.09,-172.7 445.09,-172.7 448.19,-172.7 451.29,-175.8 451.29,-178.9 451.29,-178.9 451.29,-185.1 451.29,-185.1 451.29,-188.2 448.19,-191.3 445.09,-191.3"/>
<text text-anchor="middle" x="405.78" y="-179.3" font-family="Helvetica,sans-Serif" font-size="9.00">mongodbAccess.js</text>
</a>
</g>
</g>
<!-- api/business&#45;logic/books.js&#45;&gt;api/data&#45;access/mongodbAccess.js -->
<g id="edge1" class="edge">
<title>api/business&#45;logic/books.js&#45;&gt;api/data&#45;access/mongodbAccess.js</title>
<path fill="none" stroke="#000000" stroke-width="2" stroke-opacity="0.200000" d="M326.56,-182C334.87,-182 344.37,-182 353.83,-182"/>
<polygon fill="#000000" fill-opacity="0.200000" stroke="#000000" stroke-width="2" stroke-opacity="0.200000" points="354.02,-184.1 360.02,-182 354.02,-179.9 354.02,-184.1"/>
</g>
<!-- node_modules/mongodb -->
<g id="node18" class="node">
<title>node_modules/mongodb</title>
<g id="a_node18"><a xlink:href="node_modules/mongodb" xlink:title="mongodb">
<polygon fill="#c40b0a" fill-opacity="0.101961" stroke="black" points="540.79,-65.3 488.86,-65.3 486.79,-63.23 486.79,-46.7 538.72,-46.7 540.79,-48.77 540.79,-65.3"/>
<polyline fill="none" stroke="black" points="538.72,-63.23 486.79,-63.23 "/>
<polyline fill="none" stroke="black" points="538.72,-63.23 538.72,-46.7 "/>
<polyline fill="none" stroke="black" points="538.72,-63.23 540.79,-65.3 "/>
<text text-anchor="middle" x="513.79" y="-53.3" font-family="Helvetica,sans-Serif" font-size="9.00" fill="#c40b0a">mongodb</text>
</a>
</g>
</g>
<!-- api/data&#45;access/mongodbAccess.js&#45;&gt;node_modules/mongodb -->
<g id="edge14" class="edge">
<title>api/data&#45;access/mongodbAccess.js&#45;&gt;node_modules/mongodb</title>
<path fill="none" stroke="#000000" stroke-opacity="0.200000" d="M442.56,-172.61C449.14,-169.32 455.26,-164.91 459.53,-159 470.9,-143.26 455.61,-87.32 467.53,-72 470.99,-67.56 475.78,-64.34 480.95,-62.02"/>
<polygon fill="#000000" fill-opacity="0.200000" stroke="#000000" stroke-opacity="0.200000" points="481.81,-63.94 486.67,-59.84 480.31,-60.02 481.81,-63.94"/>
</g>
<!-- api/business&#45;logic/login.js -->
<g id="node3" class="node">
<title>api/business&#45;logic/login.js</title>
<g id="a_node3"><a xlink:href="api/business-logic/login.js" xlink:title="login.js">
<path fill="#ffffcc" stroke="black" d="M320.32,-284.3C320.32,-284.3 278.72,-284.3 278.72,-284.3 275.62,-284.3 272.52,-281.2 272.52,-278.1 272.52,-278.1 272.52,-271.9 272.52,-271.9 272.52,-268.8 275.62,-265.7 278.72,-265.7 278.72,-265.7 320.32,-265.7 320.32,-265.7 323.42,-265.7 326.52,-268.8 326.52,-271.9 326.52,-271.9 326.52,-278.1 326.52,-278.1 326.52,-281.2 323.42,-284.3 320.32,-284.3"/>
<text text-anchor="middle" x="299.52" y="-272.3" font-family="Helvetica,sans-Serif" font-size="9.00">login.js</text>
</a>
</g>
</g>
<!-- api/business&#45;logic/login.js&#45;&gt;api/data&#45;access/mongodbAccess.js -->
<g id="edge2" class="edge">
<title>api/business&#45;logic/login.js&#45;&gt;api/data&#45;access/mongodbAccess.js</title>
<path fill="none" stroke="#000000" stroke-width="2" stroke-opacity="0.200000" d="M326.77,-265.88C330.15,-263.96 333.35,-261.68 336.02,-259 348.36,-246.59 341.22,-236.79 352.02,-223 360.74,-211.85 373.14,-202.02 383.72,-194.78"/>
<polygon fill="#000000" fill-opacity="0.200000" stroke="#000000" stroke-width="2" stroke-opacity="0.200000" points="384.91,-196.5 388.75,-191.43 382.59,-193.01 384.91,-196.5"/>
</g>
<!-- api/utils/createToken.js -->
<g id="node4" class="node">
<title>api/utils/createToken.js</title>
<g id="a_node4"><a xlink:href="api/utils/createToken.js" xlink:title="createToken.js">
<path fill="#ffffcc" stroke="black" d="M437.09,-283.3C437.09,-283.3 374.46,-283.3 374.46,-283.3 371.36,-283.3 368.26,-280.2 368.26,-277.1 368.26,-277.1 368.26,-270.9 368.26,-270.9 368.26,-267.8 371.36,-264.7 374.46,-264.7 374.46,-264.7 437.09,-264.7 437.09,-264.7 440.19,-264.7 443.29,-267.8 443.29,-270.9 443.29,-270.9 443.29,-277.1 443.29,-277.1 443.29,-280.2 440.19,-283.3 437.09,-283.3"/>
<text text-anchor="middle" x="405.78" y="-271.3" font-family="Helvetica,sans-Serif" font-size="9.00">createToken.js</text>
</a>
</g>
</g>
<!-- api/business&#45;logic/login.js&#45;&gt;api/utils/createToken.js -->
<g id="edge3" class="edge">
<title>api/business&#45;logic/login.js&#45;&gt;api/utils/createToken.js</title>
<path fill="none" stroke="#000000" stroke-width="2" stroke-opacity="0.200000" d="M326.56,-274.75C337.24,-274.65 349.89,-274.53 361.87,-274.41"/>
<polygon fill="#000000" fill-opacity="0.200000" stroke="#000000" stroke-width="2" stroke-opacity="0.200000" points="362.08,-276.51 368.06,-274.35 362.04,-272.31 362.08,-276.51"/>
</g>
<!-- api/utils/hashPassword.js -->
<g id="node5" class="node">
<title>api/utils/hashPassword.js</title>
<g id="a_node5"><a xlink:href="api/utils/hashPassword.js" xlink:title="hashPassword.js">
<path fill="#ffffcc" stroke="black" d="M441.59,-252.3C441.59,-252.3 369.96,-252.3 369.96,-252.3 366.86,-252.3 363.76,-249.2 363.76,-246.1 363.76,-246.1 363.76,-239.9 363.76,-239.9 363.76,-236.8 366.86,-233.7 369.96,-233.7 369.96,-233.7 441.59,-233.7 441.59,-233.7 444.69,-233.7 447.79,-236.8 447.79,-239.9 447.79,-239.9 447.79,-246.1 447.79,-246.1 447.79,-249.2 444.69,-252.3 441.59,-252.3"/>
<text text-anchor="middle" x="405.78" y="-240.3" font-family="Helvetica,sans-Serif" font-size="9.00">hashPassword.js</text>
</a>
</g>
</g>
<!-- api/business&#45;logic/login.js&#45;&gt;api/utils/hashPassword.js -->
<g id="edge4" class="edge">
<title>api/business&#45;logic/login.js&#45;&gt;api/utils/hashPassword.js</title>
<path fill="none" stroke="#000000" stroke-width="2" stroke-opacity="0.200000" d="M326.71,-266.83C334.81,-264.3 343.78,-261.53 352.02,-259 357.19,-257.41 362.65,-255.74 368.02,-254.11"/>
<polygon fill="#000000" fill-opacity="0.200000" stroke="#000000" stroke-width="2" stroke-opacity="0.200000" points="368.67,-256.11 373.8,-252.36 367.45,-252.09 368.67,-256.11"/>
</g>
<!-- api/config/tokens.js -->
<g id="node13" class="node">
<title>api/config/tokens.js</title>
<g id="a_node13"><a xlink:href="api/config/tokens.js" xlink:title="tokens.js">
<path fill="#ffffcc" stroke="black" d="M534.59,-252.3C534.59,-252.3 492.99,-252.3 492.99,-252.3 489.89,-252.3 486.79,-249.2 486.79,-246.1 486.79,-246.1 486.79,-239.9 486.79,-239.9 486.79,-236.8 489.89,-233.7 492.99,-233.7 492.99,-233.7 534.59,-233.7 534.59,-233.7 537.69,-233.7 540.79,-236.8 540.79,-239.9 540.79,-239.9 540.79,-246.1 540.79,-246.1 540.79,-249.2 537.69,-252.3 534.59,-252.3"/>
<text text-anchor="middle" x="513.79" y="-240.3" font-family="Helvetica,sans-Serif" font-size="9.00">tokens.js</text>
</a>
</g>
</g>
<!-- api/utils/createToken.js&#45;&gt;api/config/tokens.js -->
<g id="edge30" class="edge">
<title>api/utils/createToken.js&#45;&gt;api/config/tokens.js</title>
<path fill="none" stroke="#000000" stroke-width="2" stroke-opacity="0.200000" d="M438.87,-264.61C452.08,-260.75 467.36,-256.28 480.58,-252.42"/>
<polygon fill="#000000" fill-opacity="0.200000" stroke="#000000" stroke-width="2" stroke-opacity="0.200000" points="481.33,-254.39 486.5,-250.69 480.15,-250.36 481.33,-254.39"/>
</g>
<!-- node_modules/jsonwebtoken -->
<g id="node27" class="node">
<title>node_modules/jsonwebtoken</title>
<g id="a_node27"><a xlink:href="node_modules/jsonwebtoken" xlink:title="jsonwebtoken">
<polygon fill="#c40b0a" fill-opacity="0.101961" stroke="black" points="549.31,-96.3 480.34,-96.3 478.27,-94.23 478.27,-77.7 547.24,-77.7 549.31,-79.77 549.31,-96.3"/>
<polyline fill="none" stroke="black" points="547.24,-94.23 478.27,-94.23 "/>
<polyline fill="none" stroke="black" points="547.24,-94.23 547.24,-77.7 "/>
<polyline fill="none" stroke="black" points="547.24,-94.23 549.31,-96.3 "/>
<text text-anchor="middle" x="513.79" y="-84.3" font-family="Helvetica,sans-Serif" font-size="9.00" fill="#c40b0a">jsonwebtoken</text>
</a>
</g>
</g>
<!-- api/utils/createToken.js&#45;&gt;node_modules/jsonwebtoken -->
<g id="edge31" class="edge">
<title>api/utils/createToken.js&#45;&gt;node_modules/jsonwebtoken</title>
<path fill="none" stroke="#000000" stroke-opacity="0.200000" d="M443.28,-269.26C449.56,-266.84 455.38,-263.26 459.53,-258 477.88,-234.76 454.22,-151.45 467.53,-125 472.58,-114.98 481.56,-106.59 490.21,-100.26"/>
<polygon fill="#000000" fill-opacity="0.200000" stroke="#000000" stroke-opacity="0.200000" points="491.77,-101.74 495.51,-96.59 489.38,-98.28 491.77,-101.74"/>
</g>
<!-- crypto -->
<g id="node28" class="node">
<title>crypto</title>
<path fill="#ffffcc" stroke="grey" d="M534.59,-149.3C534.59,-149.3 492.99,-149.3 492.99,-149.3 489.89,-149.3 486.79,-146.2 486.79,-143.1 486.79,-143.1 486.79,-136.9 486.79,-136.9 486.79,-133.8 489.89,-130.7 492.99,-130.7 492.99,-130.7 534.59,-130.7 534.59,-130.7 537.69,-130.7 540.79,-133.8 540.79,-136.9 540.79,-136.9 540.79,-143.1 540.79,-143.1 540.79,-146.2 537.69,-149.3 534.59,-149.3"/>
<text text-anchor="middle" x="513.79" y="-137.3" font-family="Helvetica,sans-Serif" font-size="9.00" fill="grey">crypto</text>
</g>
<!-- api/utils/hashPassword.js&#45;&gt;crypto -->
<g id="edge32" class="edge">
<title>api/utils/hashPassword.js&#45;&gt;crypto</title>
<path fill="none" stroke="#000000" stroke-dasharray="5,2" stroke-opacity="0.200000" d="M437.8,-233.64C445.42,-230.42 453.19,-226.26 459.53,-221 481.65,-202.67 497.95,-172.77 506.36,-154.88"/>
<polygon fill="#000000" fill-opacity="0.200000" stroke="#000000" stroke-opacity="0.200000" points="508.32,-155.64 508.91,-149.31 504.5,-153.89 508.32,-155.64"/>
</g>
<!-- api/business&#45;logic/register.js -->
<g id="node6" class="node">
<title>api/business&#45;logic/register.js</title>
<g id="a_node6"><a xlink:href="api/business-logic/register.js" xlink:title="register.js">
<path fill="#ffffcc" stroke="black" d="M320.81,-222.3C320.81,-222.3 278.22,-222.3 278.22,-222.3 275.12,-222.3 272.02,-219.2 272.02,-216.1 272.02,-216.1 272.02,-209.9 272.02,-209.9 272.02,-206.8 275.12,-203.7 278.22,-203.7 278.22,-203.7 320.81,-203.7 320.81,-203.7 323.91,-203.7 327.02,-206.8 327.02,-209.9 327.02,-209.9 327.02,-216.1 327.02,-216.1 327.02,-219.2 323.91,-222.3 320.81,-222.3"/>
<text text-anchor="middle" x="299.52" y="-210.3" font-family="Helvetica,sans-Serif" font-size="9.00">register.js</text>
</a>
</g>
</g>
<!-- api/business&#45;logic/register.js&#45;&gt;api/data&#45;access/mongodbAccess.js -->
<g id="edge5" class="edge">
<title>api/business&#45;logic/register.js&#45;&gt;api/data&#45;access/mongodbAccess.js</title>
<path fill="none" stroke="#000000" stroke-width="2" stroke-opacity="0.200000" d="M327.1,-205.1C339.34,-201.46 354.08,-197.07 367.41,-193.11"/>
<polygon fill="#000000" fill-opacity="0.200000" stroke="#000000" stroke-width="2" stroke-opacity="0.200000" points="368.27,-195.04 373.43,-191.32 367.08,-191.02 368.27,-195.04"/>
</g>
<!-- api/business&#45;logic/register.js&#45;&gt;api/utils/hashPassword.js -->
<g id="edge6" class="edge">
<title>api/business&#45;logic/register.js&#45;&gt;api/utils/hashPassword.js</title>
<path fill="none" stroke="#000000" stroke-width="2" stroke-opacity="0.200000" d="M327.1,-220.65C339.02,-224.08 353.32,-228.19 366.38,-231.95"/>
<polygon fill="#000000" fill-opacity="0.200000" stroke="#000000" stroke-width="2" stroke-opacity="0.200000" points="365.94,-234.01 372.29,-233.65 367.1,-229.97 365.94,-234.01"/>
</g>
<!-- api/business&#45;logic/users.js -->
<g id="node7" class="node">
<title>api/business&#45;logic/users.js</title>
<g id="a_node7"><a xlink:href="api/business-logic/users.js" xlink:title="users.js">
<path fill="#ffffcc" stroke="black" d="M320.32,-253.3C320.32,-253.3 278.72,-253.3 278.72,-253.3 275.62,-253.3 272.52,-250.2 272.52,-247.1 272.52,-247.1 272.52,-240.9 272.52,-240.9 272.52,-237.8 275.62,-234.7 278.72,-234.7 278.72,-234.7 320.32,-234.7 320.32,-234.7 323.42,-234.7 326.52,-237.8 326.52,-240.9 326.52,-240.9 326.52,-247.1 326.52,-247.1 326.52,-250.2 323.42,-253.3 320.32,-253.3"/>
<text text-anchor="middle" x="299.52" y="-241.3" font-family="Helvetica,sans-Serif" font-size="9.00">users.js</text>
</a>
</g>
</g>
<!-- api/business&#45;logic/users.js&#45;&gt;api/data&#45;access/mongodbAccess.js -->
<g id="edge7" class="edge">
<title>api/business&#45;logic/users.js&#45;&gt;api/data&#45;access/mongodbAccess.js</title>
<path fill="none" stroke="#000000" stroke-width="2" stroke-opacity="0.200000" d="M322.95,-234.57C327.35,-232.53 331.88,-230.3 336.02,-228 353.98,-218.03 373.33,-204.85 386.91,-195.15"/>
<polygon fill="#000000" fill-opacity="0.200000" stroke="#000000" stroke-width="2" stroke-opacity="0.200000" points="388.36,-196.7 392,-191.49 385.9,-193.29 388.36,-196.7"/>
</g>
<!-- api/config/default.js -->
<g id="node8" class="node">
<title>api/config/default.js</title>
<g id="a_node8"><a xlink:href="api/config/default.js" xlink:title="default.js">
<path fill="#ffffcc" stroke="black" d="M613.1,-314.3C613.1,-314.3 571.5,-314.3 571.5,-314.3 568.4,-314.3 565.3,-311.2 565.3,-308.1 565.3,-308.1 565.3,-301.9 565.3,-301.9 565.3,-298.8 568.4,-295.7 571.5,-295.7 571.5,-295.7 613.1,-295.7 613.1,-295.7 616.2,-295.7 619.3,-298.8 619.3,-301.9 619.3,-301.9 619.3,-308.1 619.3,-308.1 619.3,-311.2 616.2,-314.3 613.1,-314.3"/>
<text text-anchor="middle" x="592.3" y="-302.3" font-family="Helvetica,sans-Serif" font-size="9.00">default.js</text>
</a>
</g>
</g>
<!-- path -->
<g id="node9" class="node">
<title>path</title>
<path fill="#ffffcc" stroke="grey" d="M691.1,-314.3C691.1,-314.3 649.5,-314.3 649.5,-314.3 646.4,-314.3 643.3,-311.2 643.3,-308.1 643.3,-308.1 643.3,-301.9 643.3,-301.9 643.3,-298.8 646.4,-295.7 649.5,-295.7 649.5,-295.7 691.1,-295.7 691.1,-295.7 694.2,-295.7 697.3,-298.8 697.3,-301.9 697.3,-301.9 697.3,-308.1 697.3,-308.1 697.3,-311.2 694.2,-314.3 691.1,-314.3"/>
<text text-anchor="middle" x="670.3" y="-302.3" font-family="Helvetica,sans-Serif" font-size="9.00" fill="grey">path</text>
</g>
<!-- api/config/default.js&#45;&gt;path -->
<g id="edge8" class="edge">
<title>api/config/default.js&#45;&gt;path</title>
<path fill="none" stroke="#000000" stroke-dasharray="5,2" stroke-opacity="0.200000" d="M619.45,-305C625.07,-305 631.06,-305 636.88,-305"/>
<polygon fill="#000000" fill-opacity="0.200000" stroke="#000000" stroke-opacity="0.200000" points="637.1,-307.1 643.1,-305 637.1,-302.9 637.1,-307.1"/>
</g>
<!-- api/config/development.js -->
<g id="node10" class="node">
<title>api/config/development.js</title>
<g id="a_node10"><a xlink:href="api/config/development.js" xlink:title="development.js">
<path fill="#ccffcc" stroke="black" d="M545.61,-345.3C545.61,-345.3 481.98,-345.3 481.98,-345.3 478.88,-345.3 475.78,-342.2 475.78,-339.1 475.78,-339.1 475.78,-332.9 475.78,-332.9 475.78,-329.8 478.88,-326.7 481.98,-326.7 481.98,-326.7 545.61,-326.7 545.61,-326.7 548.71,-326.7 551.81,-329.8 551.81,-332.9 551.81,-332.9 551.81,-339.1 551.81,-339.1 551.81,-342.2 548.71,-345.3 545.61,-345.3"/>
<text text-anchor="middle" x="513.79" y="-333.3" font-family="Helvetica,sans-Serif" font-size="9.00">development.js</text>
</a>
</g>
</g>
<!-- api/config/index.js -->
<g id="node11" class="node">
<title>api/config/index.js</title>
<g id="a_node11"><a xlink:href="api/config/index.js" xlink:title="index.js">
<path fill="#ffffcc" stroke="black" d="M534.59,-314.3C534.59,-314.3 492.99,-314.3 492.99,-314.3 489.89,-314.3 486.79,-311.2 486.79,-308.1 486.79,-308.1 486.79,-301.9 486.79,-301.9 486.79,-298.8 489.89,-295.7 492.99,-295.7 492.99,-295.7 534.59,-295.7 534.59,-295.7 537.69,-295.7 540.79,-298.8 540.79,-301.9 540.79,-301.9 540.79,-308.1 540.79,-308.1 540.79,-311.2 537.69,-314.3 534.59,-314.3"/>
<text text-anchor="middle" x="513.79" y="-302.3" font-family="Helvetica,sans-Serif" font-size="9.00">index.js</text>
</a>
</g>
</g>
<!-- api/config/index.js&#45;&gt;api/config/default.js -->
<g id="edge9" class="edge">
<title>api/config/index.js&#45;&gt;api/config/default.js</title>
<path fill="none" stroke="#000000" stroke-width="2" stroke-opacity="0.200000" d="M541.12,-305C546.83,-305 552.94,-305 558.86,-305"/>
<polygon fill="#000000" fill-opacity="0.200000" stroke="#000000" stroke-width="2" stroke-opacity="0.200000" points="559.18,-307.1 565.18,-305 559.18,-302.9 559.18,-307.1"/>
</g>
<!-- api/config/production.js -->
<g id="node12" class="node">
<title>api/config/production.js</title>
<g id="a_node12"><a xlink:href="api/config/production.js" xlink:title="production.js">
<path fill="#ccffcc" stroke="black" d="M541.1,-283.3C541.1,-283.3 486.48,-283.3 486.48,-283.3 483.38,-283.3 480.28,-280.2 480.28,-277.1 480.28,-277.1 480.28,-270.9 480.28,-270.9 480.28,-267.8 483.38,-264.7 486.48,-264.7 486.48,-264.7 541.1,-264.7 541.1,-264.7 544.2,-264.7 547.3,-267.8 547.3,-270.9 547.3,-270.9 547.3,-277.1 547.3,-277.1 547.3,-280.2 544.2,-283.3 541.1,-283.3"/>
<text text-anchor="middle" x="513.79" y="-271.3" font-family="Helvetica,sans-Serif" font-size="9.00">production.js</text>
</a>
</g>
</g>
<!-- api/controllers/books.js -->
<g id="node14" class="node">
<title>api/controllers/books.js</title>
<g id="a_node14"><a xlink:href="api/controllers/books.js" xlink:title="books.js">
<path fill="#ffffcc" stroke="black" d="M232.32,-191.3C232.32,-191.3 190.72,-191.3 190.72,-191.3 187.62,-191.3 184.52,-188.2 184.52,-185.1 184.52,-185.1 184.52,-178.9 184.52,-178.9 184.52,-175.8 187.62,-172.7 190.72,-172.7 190.72,-172.7 232.32,-172.7 232.32,-172.7 235.42,-172.7 238.52,-175.8 238.52,-178.9 238.52,-178.9 238.52,-185.1 238.52,-185.1 238.52,-188.2 235.42,-191.3 232.32,-191.3"/>
<text text-anchor="middle" x="211.52" y="-179.3" font-family="Helvetica,sans-Serif" font-size="9.00">books.js</text>
</a>
</g>
</g>
<!-- api/controllers/books.js&#45;&gt;api/business&#45;logic/books.js -->
<g id="edge10" class="edge">
<title>api/controllers/books.js&#45;&gt;api/business&#45;logic/books.js</title>
<path fill="none" stroke="#000000" stroke-width="2" stroke-opacity="0.200000" d="M238.79,-182C247.46,-182 257.2,-182 266.26,-182"/>
<polygon fill="#000000" fill-opacity="0.200000" stroke="#000000" stroke-width="2" stroke-opacity="0.200000" points="266.41,-184.1 272.41,-182 266.41,-179.9 266.41,-184.1"/>
</g>
<!-- api/controllers/login.js -->
<g id="node15" class="node">
<title>api/controllers/login.js</title>
<g id="a_node15"><a xlink:href="api/controllers/login.js" xlink:title="login.js">
<path fill="#ffffcc" stroke="black" d="M232.32,-284.3C232.32,-284.3 190.72,-284.3 190.72,-284.3 187.62,-284.3 184.52,-281.2 184.52,-278.1 184.52,-278.1 184.52,-271.9 184.52,-271.9 184.52,-268.8 187.62,-265.7 190.72,-265.7 190.72,-265.7 232.32,-265.7 232.32,-265.7 235.42,-265.7 238.52,-268.8 238.52,-271.9 238.52,-271.9 238.52,-278.1 238.52,-278.1 238.52,-281.2 235.42,-284.3 232.32,-284.3"/>
<text text-anchor="middle" x="211.52" y="-272.3" font-family="Helvetica,sans-Serif" font-size="9.00">login.js</text>
</a>
</g>
</g>
<!-- api/controllers/login.js&#45;&gt;api/business&#45;logic/login.js -->
<g id="edge11" class="edge">
<title>api/controllers/login.js&#45;&gt;api/business&#45;logic/login.js</title>
<path fill="none" stroke="#000000" stroke-width="2" stroke-opacity="0.200000" d="M238.79,-275C247.46,-275 257.2,-275 266.26,-275"/>
<polygon fill="#000000" fill-opacity="0.200000" stroke="#000000" stroke-width="2" stroke-opacity="0.200000" points="266.41,-277.1 272.41,-275 266.41,-272.9 266.41,-277.1"/>
</g>
<!-- api/controllers/register.js -->
<g id="node16" class="node">
<title>api/controllers/register.js</title>
<g id="a_node16"><a xlink:href="api/controllers/register.js" xlink:title="register.js">
<path fill="#ffffcc" stroke="black" d="M232.82,-222.3C232.82,-222.3 190.22,-222.3 190.22,-222.3 187.12,-222.3 184.02,-219.2 184.02,-216.1 184.02,-216.1 184.02,-209.9 184.02,-209.9 184.02,-206.8 187.12,-203.7 190.22,-203.7 190.22,-203.7 232.82,-203.7 232.82,-203.7 235.92,-203.7 239.02,-206.8 239.02,-209.9 239.02,-209.9 239.02,-216.1 239.02,-216.1 239.02,-219.2 235.92,-222.3 232.82,-222.3"/>
<text text-anchor="middle" x="211.52" y="-210.3" font-family="Helvetica,sans-Serif" font-size="9.00">register.js</text>
</a>
</g>
</g>
<!-- api/controllers/register.js&#45;&gt;api/business&#45;logic/register.js -->
<g id="edge12" class="edge">
<title>api/controllers/register.js&#45;&gt;api/business&#45;logic/register.js</title>
<path fill="none" stroke="#000000" stroke-width="2" stroke-opacity="0.200000" d="M239.26,-213C247.59,-213 256.88,-213 265.58,-213"/>
<polygon fill="#000000" fill-opacity="0.200000" stroke="#000000" stroke-width="2" stroke-opacity="0.200000" points="265.79,-215.1 271.79,-213 265.79,-210.9 265.79,-215.1"/>
</g>
<!-- api/controllers/users.js -->
<g id="node17" class="node">
<title>api/controllers/users.js</title>
<g id="a_node17"><a xlink:href="api/controllers/users.js" xlink:title="users.js">
<path fill="#ffffcc" stroke="black" d="M232.32,-253.3C232.32,-253.3 190.72,-253.3 190.72,-253.3 187.62,-253.3 184.52,-250.2 184.52,-247.1 184.52,-247.1 184.52,-240.9 184.52,-240.9 184.52,-237.8 187.62,-234.7 190.72,-234.7 190.72,-234.7 232.32,-234.7 232.32,-234.7 235.42,-234.7 238.52,-237.8 238.52,-240.9 238.52,-240.9 238.52,-247.1 238.52,-247.1 238.52,-250.2 235.42,-253.3 232.32,-253.3"/>
<text text-anchor="middle" x="211.52" y="-241.3" font-family="Helvetica,sans-Serif" font-size="9.00">users.js</text>
</a>
</g>
</g>
<!-- api/controllers/users.js&#45;&gt;api/business&#45;logic/users.js -->
<g id="edge13" class="edge">
<title>api/controllers/users.js&#45;&gt;api/business&#45;logic/users.js</title>
<path fill="none" stroke="#000000" stroke-width="2" stroke-opacity="0.200000" d="M238.79,-244C247.46,-244 257.2,-244 266.26,-244"/>
<polygon fill="#000000" fill-opacity="0.200000" stroke="#000000" stroke-width="2" stroke-opacity="0.200000" points="266.41,-246.1 272.41,-244 266.41,-241.9 266.41,-246.1"/>
</g>
<!-- api/index.js -->
<g id="node19" class="node">
<title>api/index.js</title>
<g id="a_node19"><a xlink:href="api/index.js" xlink:title="index.js">
<path fill="#ffffcc" stroke="black" d="M63.8,-237.3C63.8,-237.3 22.2,-237.3 22.2,-237.3 19.1,-237.3 16,-234.2 16,-231.1 16,-231.1 16,-224.9 16,-224.9 16,-221.8 19.1,-218.7 22.2,-218.7 22.2,-218.7 63.8,-218.7 63.8,-218.7 66.9,-218.7 70,-221.8 70,-224.9 70,-224.9 70,-231.1 70,-231.1 70,-234.2 66.9,-237.3 63.8,-237.3"/>
<text text-anchor="middle" x="43" y="-225.3" font-family="Helvetica,sans-Serif" font-size="9.00">index.js</text>
</a>
</g>
</g>
<!-- api/middleware/authenticate.js -->
<g id="node20" class="node">
<title>api/middleware/authenticate.js</title>
<g id="a_node20"><a xlink:href="api/middleware/authenticate.js" xlink:title="authenticate.js">
<path fill="#ffffcc" stroke="black" d="M153.83,-345.3C153.83,-345.3 92.19,-345.3 92.19,-345.3 89.09,-345.3 85.99,-342.2 85.99,-339.1 85.99,-339.1 85.99,-332.9 85.99,-332.9 85.99,-329.8 89.09,-326.7 92.19,-326.7 92.19,-326.7 153.83,-326.7 153.83,-326.7 156.93,-326.7 160.03,-329.8 160.03,-332.9 160.03,-332.9 160.03,-339.1 160.03,-339.1 160.03,-342.2 156.93,-345.3 153.83,-345.3"/>
<text text-anchor="middle" x="123.01" y="-333.3" font-family="Helvetica,sans-Serif" font-size="9.00">authenticate.js</text>
</a>
</g>
</g>
<!-- api/index.js&#45;&gt;api/middleware/authenticate.js -->
<g id="edge15" class="edge">
<title>api/index.js&#45;&gt;api/middleware/authenticate.js</title>
<path fill="none" stroke="#000000" stroke-width="2" stroke-opacity="0.200000" d="M45.46,-237.45C48.55,-254.65 57.28,-291.39 78,-314 81.4,-317.71 85.57,-320.88 89.97,-323.56"/>
<polygon fill="#000000" fill-opacity="0.200000" stroke="#000000" stroke-width="2" stroke-opacity="0.200000" points="88.95,-325.39 95.21,-326.48 91,-321.73 88.95,-325.39"/>
</g>
<!-- api/routes/books.js -->
<g id="node21" class="node">
<title>api/routes/books.js</title>
<g id="a_node21"><a xlink:href="api/routes/books.js" xlink:title="books.js">
<path fill="#ffffcc" stroke="black" d="M143.81,-191.3C143.81,-191.3 102.21,-191.3 102.21,-191.3 99.11,-191.3 96.01,-188.2 96.01,-185.1 96.01,-185.1 96.01,-178.9 96.01,-178.9 96.01,-175.8 99.11,-172.7 102.21,-172.7 102.21,-172.7 143.81,-172.7 143.81,-172.7 146.91,-172.7 150.01,-175.8 150.01,-178.9 150.01,-178.9 150.01,-185.1 150.01,-185.1 150.01,-188.2 146.91,-191.3 143.81,-191.3"/>
<text text-anchor="middle" x="123.01" y="-179.3" font-family="Helvetica,sans-Serif" font-size="9.00">books.js</text>
</a>
</g>
</g>
<!-- api/index.js&#45;&gt;api/routes/books.js -->
<g id="edge16" class="edge">
<title>api/index.js&#45;&gt;api/routes/books.js</title>
<path fill="none" stroke="#000000" stroke-width="2" stroke-opacity="0.200000" d="M52.78,-218.57C59.24,-212.07 68.52,-203.63 78,-198 81.75,-195.77 85.86,-193.78 90.01,-192.01"/>
<polygon fill="#000000" fill-opacity="0.200000" stroke="#000000" stroke-width="2" stroke-opacity="0.200000" points="90.88,-193.93 95.68,-189.75 89.32,-190.03 90.88,-193.93"/>
</g>
<!-- api/routes/login.js -->
<g id="node22" class="node">
<title>api/routes/login.js</title>
<g id="a_node22"><a xlink:href="api/routes/login.js" xlink:title="login.js">
<path fill="#ffffcc" stroke="black" d="M143.81,-284.3C143.81,-284.3 102.21,-284.3 102.21,-284.3 99.11,-284.3 96.01,-281.2 96.01,-278.1 96.01,-278.1 96.01,-271.9 96.01,-271.9 96.01,-268.8 99.11,-265.7 102.21,-265.7 102.21,-265.7 143.81,-265.7 143.81,-265.7 146.91,-265.7 150.01,-268.8 150.01,-271.9 150.01,-271.9 150.01,-278.1 150.01,-278.1 150.01,-281.2 146.91,-284.3 143.81,-284.3"/>
<text text-anchor="middle" x="123.01" y="-272.3" font-family="Helvetica,sans-Serif" font-size="9.00">login.js</text>
</a>
</g>
</g>
<!-- api/index.js&#45;&gt;api/routes/login.js -->
<g id="edge17" class="edge">
<title>api/index.js&#45;&gt;api/routes/login.js</title>
<path fill="none" stroke="#000000" stroke-width="2" stroke-opacity="0.200000" d="M52.45,-237.47C58.89,-244.23 68.29,-253.13 78,-259 81.73,-261.26 85.83,-263.27 89.98,-265.04"/>
<polygon fill="#000000" fill-opacity="0.200000" stroke="#000000" stroke-width="2" stroke-opacity="0.200000" points="89.29,-267.03 95.64,-267.31 90.85,-263.13 89.29,-267.03"/>
</g>
<!-- api/routes/register.js -->
<g id="node23" class="node">
<title>api/routes/register.js</title>
<g id="a_node23"><a xlink:href="api/routes/register.js" xlink:title="register.js">
<path fill="#ffffcc" stroke="black" d="M144.31,-222.3C144.31,-222.3 101.71,-222.3 101.71,-222.3 98.61,-222.3 95.51,-219.2 95.51,-216.1 95.51,-216.1 95.51,-209.9 95.51,-209.9 95.51,-206.8 98.61,-203.7 101.71,-203.7 101.71,-203.7 144.31,-203.7 144.31,-203.7 147.41,-203.7 150.51,-206.8 150.51,-209.9 150.51,-209.9 150.51,-216.1 150.51,-216.1 150.51,-219.2 147.41,-222.3 144.31,-222.3"/>
<text text-anchor="middle" x="123.01" y="-210.3" font-family="Helvetica,sans-Serif" font-size="9.00">register.js</text>
</a>
</g>
</g>
<!-- api/index.js&#45;&gt;api/routes/register.js -->
<g id="edge18" class="edge">
<title>api/index.js&#45;&gt;api/routes/register.js</title>
<path fill="none" stroke="#000000" stroke-width="2" stroke-opacity="0.200000" d="M70.41,-222.92C76.44,-221.76 82.93,-220.51 89.19,-219.31"/>
<polygon fill="#000000" fill-opacity="0.200000" stroke="#000000" stroke-width="2" stroke-opacity="0.200000" points="89.87,-221.32 95.36,-218.12 89.07,-217.19 89.87,-221.32"/>
</g>
<!-- api/routes/users.js -->
<g id="node24" class="node">
<title>api/routes/users.js</title>
<g id="a_node24"><a xlink:href="api/routes/users.js" xlink:title="users.js">
<path fill="#ffffcc" stroke="black" d="M143.81,-253.3C143.81,-253.3 102.21,-253.3 102.21,-253.3 99.11,-253.3 96.01,-250.2 96.01,-247.1 96.01,-247.1 96.01,-240.9 96.01,-240.9 96.01,-237.8 99.11,-234.7 102.21,-234.7 102.21,-234.7 143.81,-234.7 143.81,-234.7 146.91,-234.7 150.01,-237.8 150.01,-240.9 150.01,-240.9 150.01,-247.1 150.01,-247.1 150.01,-250.2 146.91,-253.3 143.81,-253.3"/>
<text text-anchor="middle" x="123.01" y="-241.3" font-family="Helvetica,sans-Serif" font-size="9.00">users.js</text>
</a>
</g>
</g>
<!-- api/index.js&#45;&gt;api/routes/users.js -->
<g id="edge19" class="edge">
<title>api/index.js&#45;&gt;api/routes/users.js</title>
<path fill="none" stroke="#000000" stroke-width="2" stroke-opacity="0.200000" d="M70.41,-233.42C76.71,-234.71 83.49,-236.1 90.01,-237.44"/>
<polygon fill="#000000" fill-opacity="0.200000" stroke="#000000" stroke-width="2" stroke-opacity="0.200000" points="89.59,-239.49 95.89,-238.64 90.44,-235.38 89.59,-239.49"/>
</g>
<!-- node_modules/express -->
<g id="node25" class="node">
<title>node_modules/express</title>
<g id="a_node25"><a xlink:href="node_modules/express" xlink:title="express">
<polygon fill="#c40b0a" fill-opacity="0.101961" stroke="black" points="540.79,-34.3 488.86,-34.3 486.79,-32.23 486.79,-15.7 538.72,-15.7 540.79,-17.77 540.79,-34.3"/>
<polyline fill="none" stroke="black" points="538.72,-32.23 486.79,-32.23 "/>
<polyline fill="none" stroke="black" points="538.72,-32.23 538.72,-15.7 "/>
<polyline fill="none" stroke="black" points="538.72,-32.23 540.79,-34.3 "/>
<text text-anchor="middle" x="513.79" y="-22.3" font-family="Helvetica,sans-Serif" font-size="9.00" fill="#c40b0a">express</text>
</a>
</g>
</g>
<!-- api/index.js&#45;&gt;node_modules/express -->
<g id="edge20" class="edge">
<title>api/index.js&#45;&gt;node_modules/express</title>
<path fill="none" stroke="#000000" stroke-opacity="0.200000" d="M46.83,-218.69C59.2,-180.14 112.27,-35 210.52,-35 210.52,-35 210.52,-35 300.52,-35 364.39,-35 438.94,-30.43 480.53,-27.47"/>
<polygon fill="#000000" fill-opacity="0.200000" stroke="#000000" stroke-opacity="0.200000" points="480.83,-29.55 486.67,-27.02 480.53,-25.36 480.83,-29.55"/>
</g>
<!-- api/utils/validateToken.js -->
<g id="node26" class="node">
<title>api/utils/validateToken.js</title>
<g id="a_node26"><a xlink:href="api/utils/validateToken.js" xlink:title="validateToken.js">
<path fill="#ffffcc" stroke="black" d="M440.09,-314.3C440.09,-314.3 371.46,-314.3 371.46,-314.3 368.36,-314.3 365.26,-311.2 365.26,-308.1 365.26,-308.1 365.26,-301.9 365.26,-301.9 365.26,-298.8 368.36,-295.7 371.46,-295.7 371.46,-295.7 440.09,-295.7 440.09,-295.7 443.19,-295.7 446.29,-298.8 446.29,-301.9 446.29,-301.9 446.29,-308.1 446.29,-308.1 446.29,-311.2 443.19,-314.3 440.09,-314.3"/>
<text text-anchor="middle" x="405.78" y="-302.3" font-family="Helvetica,sans-Serif" font-size="9.00">validateToken.js</text>
</a>
</g>
</g>
<!-- api/middleware/authenticate.js&#45;&gt;api/utils/validateToken.js -->
<g id="edge21" class="edge">
<title>api/middleware/authenticate.js&#45;&gt;api/utils/validateToken.js</title>
<path fill="none" stroke="#000000" stroke-width="2" stroke-opacity="0.200000" d="M160.05,-332.56C202.26,-328.45 274.27,-321.24 336.02,-314 343.4,-313.13 351.21,-312.16 358.83,-311.19"/>
<polygon fill="#000000" fill-opacity="0.200000" stroke="#000000" stroke-width="2" stroke-opacity="0.200000" points="359.48,-313.22 365.17,-310.37 358.95,-309.05 359.48,-313.22"/>
</g>
<!-- api/routes/books.js&#45;&gt;api/controllers/books.js -->
<g id="edge22" class="edge">
<title>api/routes/books.js&#45;&gt;api/controllers/books.js</title>
<path fill="none" stroke="#000000" stroke-width="2" stroke-opacity="0.200000" d="M150.44,-182C159.16,-182 168.96,-182 178.07,-182"/>
<polygon fill="#000000" fill-opacity="0.200000" stroke="#000000" stroke-width="2" stroke-opacity="0.200000" points="178.26,-184.1 184.26,-182 178.26,-179.9 178.26,-184.1"/>
</g>
<!-- api/routes/books.js&#45;&gt;node_modules/express -->
<g id="edge23" class="edge">
<title>api/routes/books.js&#45;&gt;node_modules/express</title>
<path fill="none" stroke="#000000" stroke-opacity="0.200000" d="M126.03,-172.65C130.85,-152.84 145,-106.66 176.02,-85 280.37,-12.16 338.04,-82.84 459.53,-45 463.33,-43.82 463.88,-42.55 467.53,-41 471.85,-39.17 476.45,-37.37 481.01,-35.67"/>
<polygon fill="#000000" fill-opacity="0.200000" stroke="#000000" stroke-opacity="0.200000" points="481.81,-37.62 486.73,-33.59 480.38,-33.67 481.81,-37.62"/>
</g>
<!-- api/routes/login.js&#45;&gt;api/controllers/login.js -->
<g id="edge24" class="edge">
<title>api/routes/login.js&#45;&gt;api/controllers/login.js</title>
<path fill="none" stroke="#000000" stroke-width="2" stroke-opacity="0.200000" d="M150.44,-275C159.16,-275 168.96,-275 178.07,-275"/>
<polygon fill="#000000" fill-opacity="0.200000" stroke="#000000" stroke-width="2" stroke-opacity="0.200000" points="178.26,-277.1 184.26,-275 178.26,-272.9 178.26,-277.1"/>
</g>
<!-- api/routes/login.js&#45;&gt;node_modules/express -->
<g id="edge25" class="edge">
<title>api/routes/login.js&#45;&gt;node_modules/express</title>
<path fill="none" stroke="#000000" stroke-opacity="0.200000" d="M150.38,-270.72C157.12,-268.35 163.68,-264.69 168.02,-259 181.15,-241.81 161.69,-178.2 176.02,-162 218.64,-113.79 415.81,-150.22 459.53,-103 478.41,-82.61 450.07,-62.61 467.53,-41 470.92,-36.81 475.49,-33.71 480.42,-31.43"/>
<polygon fill="#000000" fill-opacity="0.200000" stroke="#000000" stroke-opacity="0.200000" points="481.52,-33.25 486.33,-29.1 479.98,-29.34 481.52,-33.25"/>
</g>
<!-- api/routes/register.js&#45;&gt;api/controllers/register.js -->
<g id="edge26" class="edge">
<title>api/routes/register.js&#45;&gt;api/controllers/register.js</title>
<path fill="none" stroke="#000000" stroke-width="2" stroke-opacity="0.200000" d="M150.91,-213C159.45,-213 168.99,-213 177.9,-213"/>
<polygon fill="#000000" fill-opacity="0.200000" stroke="#000000" stroke-width="2" stroke-opacity="0.200000" points="177.94,-215.1 183.94,-213 177.94,-210.9 177.94,-215.1"/>
</g>
<!-- api/routes/register.js&#45;&gt;node_modules/express -->
<g id="edge27" class="edge">
<title>api/routes/register.js&#45;&gt;node_modules/express</title>
<path fill="none" stroke="#000000" stroke-opacity="0.200000" d="M150.8,-208.52C157.38,-206.15 163.74,-202.53 168.02,-197 179.62,-181.99 163.2,-125.99 176.02,-112 219.29,-64.77 409.6,-100.12 459.53,-60 466.68,-54.26 460.87,-47.29 467.53,-41 471.28,-37.47 475.86,-34.71 480.64,-32.55"/>
<polygon fill="#000000" fill-opacity="0.200000" stroke="#000000" stroke-opacity="0.200000" points="481.53,-34.46 486.32,-30.29 479.97,-30.56 481.53,-34.46"/>
</g>
<!-- api/routes/users.js&#45;&gt;api/controllers/users.js -->
<g id="edge28" class="edge">
<title>api/routes/users.js&#45;&gt;api/controllers/users.js</title>
<path fill="none" stroke="#000000" stroke-width="2" stroke-opacity="0.200000" d="M150.44,-244C159.16,-244 168.96,-244 178.07,-244"/>
<polygon fill="#000000" fill-opacity="0.200000" stroke="#000000" stroke-width="2" stroke-opacity="0.200000" points="178.26,-246.1 184.26,-244 178.26,-241.9 178.26,-246.1"/>
</g>
<!-- api/routes/users.js&#45;&gt;node_modules/express -->
<g id="edge29" class="edge">
<title>api/routes/users.js&#45;&gt;node_modules/express</title>
<path fill="none" stroke="#000000" stroke-opacity="0.200000" d="M150.36,-239.7C157.09,-237.33 163.66,-233.67 168.02,-228 180.13,-212.26 162.81,-153.83 176.02,-139 218.82,-90.94 414.09,-125.57 459.53,-80 472.03,-67.47 455.91,-54.34 467.53,-41 471.15,-36.85 475.92,-33.77 481,-31.49"/>
<polygon fill="#000000" fill-opacity="0.200000" stroke="#000000" stroke-opacity="0.200000" points="481.76,-33.45 486.6,-29.32 480.24,-29.54 481.76,-33.45"/>
</g>
<!-- api/utils/validateToken.js&#45;&gt;api/config/tokens.js -->
<g id="edge33" class="edge">
<title>api/utils/validateToken.js&#45;&gt;api/config/tokens.js</title>
<path fill="none" stroke="#000000" stroke-width="2" stroke-opacity="0.200000" d="M446.51,-297.9C451.35,-295.68 455.88,-292.78 459.53,-289 469.13,-279.08 458.17,-269.14 467.53,-259 471.11,-255.13 475.68,-252.19 480.54,-249.97"/>
<polygon fill="#000000" fill-opacity="0.200000" stroke="#000000" stroke-width="2" stroke-opacity="0.200000" points="481.53,-251.83 486.33,-247.67 479.98,-247.93 481.53,-251.83"/>
</g>
<!-- api/utils/validateToken.js&#45;&gt;node_modules/jsonwebtoken -->
<g id="edge34" class="edge">
<title>api/utils/validateToken.js&#45;&gt;node_modules/jsonwebtoken</title>
<path fill="none" stroke="#000000" stroke-opacity="0.200000" d="M446.51,-298.95C451.54,-296.59 456.12,-293.38 459.53,-289 470.76,-274.62 459.43,-141.34 467.53,-125 472.52,-114.95 481.5,-106.56 490.15,-100.24"/>
<polygon fill="#000000" fill-opacity="0.200000" stroke="#000000" stroke-opacity="0.200000" points="491.72,-101.71 495.46,-96.57 489.33,-98.25 491.72,-101.71"/>
</g>
</g>
</svg>
